<svg width="24" height="24" viewBox="0 0 24 24" fill="none" xmlns="http://www.w3.org/2000/svg">
<path d="M7.725 12.4884L15.075 19.8384C15.325 20.0884 15.446 20.38 15.438 20.7134C15.43 21.0467 15.3007 21.3384 15.05 21.5884C14.7993 21.8384 14.5077 21.9634 14.175 21.9634C13.8423 21.9634 13.5507 21.8384 13.3 21.5884L5.6 13.9134C5.4 13.7134 5.25 13.4884 5.15 13.2384C5.05 12.9884 5 12.7384 5 12.4884C5 12.2384 5.05 11.9884 5.15 11.7384C5.25 11.4884 5.4 11.2634 5.6 11.0634L13.3 3.36337C13.55 3.11337 13.846 2.99237 14.188 3.00037C14.53 3.00837 14.8257 3.13771 15.075 3.38837C15.3243 3.63904 15.4493 3.93071 15.45 4.26337C15.4507 4.59604 15.3257 4.88771 15.075 5.13837L7.725 12.4884Z" fill="#5C2A94"/>
</svg>
