<svg width="24" height="24" viewBox="0 0 24 24" fill="none" xmlns="http://www.w3.org/2000/svg">
<path d="M12 11.325L14.375 13.7C14.5583 13.8833 14.7877 13.975 15.063 13.975C15.3383 13.975 15.5757 13.8833 15.775 13.7C15.975 13.5 16.075 13.2627 16.075 12.988C16.075 12.7133 15.975 12.4757 15.775 12.275L12.7 9.2C12.5 9 12.2667 8.9 12 8.9C11.7333 8.9 11.5 9 11.3 9.2L8.2 12.3C8 12.5 7.90433 12.7333 7.913 13C7.92167 13.2667 8.02567 13.5 8.225 13.7C8.425 13.8833 8.65833 13.9793 8.925 13.988C9.19167 13.9967 9.425 13.9007 9.625 13.7L12 11.325ZM12 22C10.6167 22 9.31667 21.7373 8.1 21.212C6.88334 20.6867 5.825 19.9743 4.925 19.075C4.025 18.1757 3.31267 17.1173 2.788 15.9C2.26333 14.6827 2.00067 13.3827 2 12C1.99933 10.6173 2.262 9.31733 2.788 8.1C3.314 6.88267 4.02633 5.82433 4.925 4.925C5.82367 4.02567 6.882 3.31333 8.1 2.788C9.318 2.26267 10.618 2 12 2C13.382 2 14.682 2.26267 15.9 2.788C17.118 3.31333 18.1763 4.02567 19.075 4.925C19.9737 5.82433 20.6863 6.88267 21.213 8.1C21.7397 9.31733 22.002 10.6173 22 12C21.998 13.3827 21.7353 14.6827 21.212 15.9C20.6887 17.1173 19.9763 18.1757 19.075 19.075C18.1737 19.9743 17.1153 20.687 15.9 21.213C14.6847 21.739 13.3847 22.0013 12 22ZM12 20C14.2333 20 16.125 19.225 17.675 17.675C19.225 16.125 20 14.2333 20 12C20 9.76667 19.225 7.875 17.675 6.325C16.125 4.775 14.2333 4 12 4C9.76667 4 7.875 4.775 6.325 6.325C4.775 7.875 4 9.76667 4 12C4 14.2333 4.775 16.125 6.325 17.675C7.875 19.225 9.76667 20 12 20Z" fill="#5C2A94"/>
</svg>
