<svg width="22" height="22" viewBox="0 0 22 22" fill="none" xmlns="http://www.w3.org/2000/svg">
<path d="M6.41666 19.25C5.91249 19.25 5.48105 19.0706 5.12233 18.7119C4.7636 18.3532 4.58394 17.9214 4.58333 17.4167V5.5C4.3236 5.5 4.10605 5.412 3.93066 5.236C3.75527 5.06 3.66727 4.84244 3.66666 4.58333C3.66605 4.32422 3.75405 4.10667 3.93066 3.93067C4.10727 3.75467 4.32483 3.66667 4.58333 3.66667H8.24999C8.24999 3.40694 8.33799 3.18939 8.51399 3.014C8.68999 2.83861 8.90755 2.75061 9.16666 2.75H12.8333C13.093 2.75 13.3109 2.838 13.4869 3.014C13.6629 3.19 13.7506 3.40756 13.75 3.66667H17.4167C17.6764 3.66667 17.8942 3.75467 18.0702 3.93067C18.2462 4.10667 18.3339 4.32422 18.3333 4.58333C18.3327 4.84244 18.2447 5.06031 18.0693 5.23692C17.8939 5.41353 17.6764 5.50122 17.4167 5.5V17.4167C17.4167 17.9208 17.2373 18.3526 16.8786 18.7119C16.5199 19.0713 16.0881 19.2506 15.5833 19.25H6.41666ZM15.5833 5.5H6.41666V17.4167H15.5833V5.5ZM9.82024 15.3202C9.99563 15.1442 10.0833 14.9264 10.0833 14.6667V8.25C10.0833 7.99028 9.99533 7.77272 9.81933 7.59733C9.64333 7.42194 9.42577 7.33394 9.16666 7.33333C8.90755 7.33272 8.68999 7.42072 8.51399 7.59733C8.33799 7.77394 8.24999 7.9915 8.24999 8.25V14.6667C8.24999 14.9264 8.33799 15.1442 8.51399 15.3202C8.68999 15.4962 8.90755 15.5839 9.16666 15.5833C9.42577 15.5827 9.64363 15.4956 9.82024 15.3202ZM13.4869 15.3193C13.6623 15.1446 13.75 14.927 13.75 14.6667V8.25C13.75 7.99028 13.662 7.77272 13.486 7.59733C13.31 7.42194 13.0924 7.33394 12.8333 7.33333C12.5742 7.33272 12.3567 7.42072 12.1807 7.59733C12.0047 7.77394 11.9167 7.9915 11.9167 8.25V14.6667C11.9167 14.9264 12.0047 15.1442 12.1807 15.3202C12.3567 15.4962 12.5742 15.5839 12.8333 15.5833C13.0924 15.5827 13.3103 15.4947 13.4869 15.3193Z" fill="#5C2A94"/>
</svg>
