<svg width="24" height="24" viewBox="0 0 24 24" fill="none" xmlns="http://www.w3.org/2000/svg">
<path d="M11.625 14.913C11.5083 14.871 11.4 14.8 11.3 14.7L6.7 10.1C6.51667 9.91667 6.425 9.68334 6.425 9.4C6.425 9.11667 6.51667 8.88334 6.7 8.7C6.88334 8.51667 7.11667 8.425 7.4 8.425C7.68334 8.425 7.91667 8.51667 8.1 8.7L12 12.6L15.9 8.7C16.0833 8.51667 16.3167 8.425 16.6 8.425C16.8833 8.425 17.1167 8.51667 17.3 8.7C17.4833 8.88334 17.575 9.11667 17.575 9.4C17.575 9.68334 17.4833 9.91667 17.3 10.1L12.7 14.7C12.6 14.8 12.4917 14.871 12.375 14.913C12.2583 14.955 12.1333 14.9757 12 14.975C11.8667 14.9743 11.7417 14.9537 11.625 14.913Z" fill="#5C2A94"/>
</svg>
