<svg width="24" height="24" viewBox="0 0 24 24" fill="none" xmlns="http://www.w3.org/2000/svg">
<path d="M15.47 11.293C15.3772 11.2001 15.2669 11.1264 15.1456 11.0761C15.0243 11.0258 14.8942 10.9998 14.7629 10.9998C14.6315 10.9998 14.5014 11.0256 14.3801 11.0758C14.2587 11.126 14.1484 11.1997 14.0555 11.2925C13.9626 11.3853 13.8889 11.4956 13.8386 11.6169C13.7883 11.7382 13.7623 11.8683 13.7623 11.9996C13.7623 12.131 13.7881 12.2611 13.8383 12.3824C13.8885 12.5038 13.9622 12.6141 14.055 12.707C14.2425 12.8946 14.4969 13.0001 14.7621 13.0002C15.0274 13.0003 15.2819 12.895 15.4695 12.7075C15.6571 12.52 15.7626 12.2656 15.7627 12.0004C15.7628 11.7351 15.6575 11.4806 15.47 11.293ZM16.177 9.172C16.2692 9.07649 16.3796 9.00031 16.5016 8.9479C16.6236 8.89549 16.7548 8.86791 16.8876 8.86675C17.0204 8.8656 17.1521 8.8909 17.275 8.94118C17.3979 8.99146 17.5095 9.06571 17.6034 9.15961C17.6973 9.2535 17.7715 9.36515 17.8218 9.48805C17.8721 9.61094 17.8974 9.74262 17.8962 9.8754C17.8951 10.0082 17.8675 10.1394 17.8151 10.2614C17.7627 10.3834 17.6865 10.4938 17.591 10.586C17.4024 10.7682 17.1498 10.869 16.8876 10.8667C16.6254 10.8644 16.3746 10.7592 16.1892 10.5738C16.0038 10.3884 15.8986 10.1376 15.8963 9.8754C15.894 9.61321 15.9948 9.3606 16.177 9.172ZM19.712 11.293C19.6198 11.1975 19.5094 11.1213 19.3874 11.0689C19.2654 11.0165 19.1342 10.9889 19.0014 10.9878C18.8686 10.9866 18.7369 11.0119 18.614 11.0622C18.4911 11.1125 18.3795 11.1867 18.2856 11.2806C18.1917 11.3745 18.1175 11.4862 18.0672 11.609C18.0169 11.7319 17.9916 11.8636 17.9928 11.9964C17.9939 12.1292 18.0215 12.2604 18.0739 12.3824C18.1263 12.5044 18.2025 12.6148 18.298 12.707C18.4866 12.8892 18.7392 12.99 19.0014 12.9877C19.2636 12.9854 19.5144 12.8802 19.6998 12.6948C19.8852 12.5094 19.9904 12.2586 19.9927 11.9964C19.995 11.7342 19.8942 11.4816 19.712 11.293ZM16.177 13.414C16.2699 13.3212 16.3802 13.2475 16.5016 13.1973C16.6229 13.1471 16.753 13.1213 16.8844 13.1213C17.0157 13.1213 17.1458 13.1473 17.2671 13.1976C17.3884 13.2479 17.4987 13.3216 17.5915 13.4145C17.6843 13.5074 17.758 13.6177 17.8082 13.7391C17.8584 13.8604 17.8842 13.9905 17.8842 14.1219C17.8842 14.2532 17.8582 14.3833 17.8079 14.5046C17.7576 14.6259 17.6839 14.7362 17.591 14.829C17.4034 15.0165 17.1489 15.1218 16.8836 15.1217C16.6184 15.1216 16.364 15.0161 16.1765 14.8285C15.989 14.6409 15.8837 14.3864 15.8838 14.1211C15.8839 13.8559 15.9894 13.6015 16.177 13.414ZM6 13H4V11H6V9H8V11H10V13H8V15H6V13Z" fill="#5C2A94"/>
<path fill-rule="evenodd" clip-rule="evenodd" d="M7 5C5.14348 5 3.36301 5.7375 2.05025 7.05025C0.737498 8.36301 0 10.1435 0 12C0 13.8565 0.737498 15.637 2.05025 16.9497C3.36301 18.2625 5.14348 19 7 19H17C17.9193 19 18.8295 18.8189 19.6788 18.4672C20.5281 18.1154 21.2997 17.5998 21.9497 16.9497C22.5998 16.2997 23.1154 15.5281 23.4672 14.6788C23.8189 13.8295 24 12.9193 24 12C24 11.0807 23.8189 10.1705 23.4672 9.32122C23.1154 8.47194 22.5998 7.70026 21.9497 7.05025C21.2997 6.40024 20.5281 5.88463 19.6788 5.53284C18.8295 5.18106 17.9193 5 17 5H7ZM17 7H7C5.67392 7 4.40215 7.52678 3.46447 8.46447C2.52678 9.40215 2 10.6739 2 12C2 13.3261 2.52678 14.5979 3.46447 15.5355C4.40215 16.4732 5.67392 17 7 17H17C18.3261 17 19.5979 16.4732 20.5355 15.5355C21.4732 14.5979 22 13.3261 22 12C22 10.6739 21.4732 9.40215 20.5355 8.46447C19.5979 7.52678 18.3261 7 17 7Z" fill="#5C2A94"/>
</svg>
