<svg width="64" height="64" viewBox="0 0 64 64" fill="none" xmlns="http://www.w3.org/2000/svg">
<path d="M43.0668 34.6666H13.3334C12.5779 34.6666 11.945 34.4106 11.4348 33.8986C10.9245 33.3866 10.6685 32.7538 10.6668 32C10.665 31.2462 10.921 30.6133 11.4348 30.1013C11.9485 29.5893 12.5814 29.3333 13.3334 29.3333H43.0668L35.4668 21.7333C34.9334 21.2 34.6774 20.5778 34.6988 19.8666C34.7201 19.1555 34.9761 18.5333 35.4668 18C36.0001 17.4666 36.6339 17.1893 37.3681 17.168C38.1023 17.1466 38.7352 17.4018 39.2668 17.9333L51.4668 30.1333C51.7334 30.4 51.9228 30.6889 52.0348 31C52.1468 31.3111 52.2019 31.6444 52.2001 32C52.1983 32.3555 52.1432 32.6889 52.0348 33C51.9263 33.3111 51.737 33.6 51.4668 33.8666L39.2668 46.0666C38.7334 46.6 38.1005 46.856 37.3681 46.8346C36.6356 46.8133 36.0019 46.5351 35.4668 46C34.9779 45.4666 34.7219 44.8444 34.6988 44.1333C34.6756 43.4222 34.9316 42.8 35.4668 42.2666L43.0668 34.6666Z" fill="white"/>
</svg>
