<svg width="22" height="22" viewBox="0 0 22 22" fill="none" xmlns="http://www.w3.org/2000/svg">
<path d="M14.5105 12.9971L14.0934 13.4124C14.0934 13.4124 13.1006 14.3987 10.3919 11.7056C7.68312 9.0124 8.67587 8.02606 8.67587 8.02606L8.93803 7.7639C9.58612 7.1204 9.64753 6.0864 9.08195 5.33106L7.92695 3.78831C7.22662 2.85331 5.87454 2.72956 5.07245 3.52706L3.63328 4.95706C3.23637 5.35306 2.97053 5.86456 3.00262 6.4329C3.08512 7.88765 3.74328 11.0162 7.41362 14.6664C11.3067 18.5366 14.9596 18.6906 16.4529 18.5512C16.9259 18.5072 17.3365 18.2671 17.6675 17.9371L18.9691 16.6427C19.8491 15.7691 19.6016 14.2704 18.476 13.659L16.7251 12.7066C15.9863 12.306 15.088 12.4233 14.5105 12.9971Z" fill="#3C1C5E"/>
</svg>
