<svg width="22" height="22" viewBox="0 0 22 22" fill="none" xmlns="http://www.w3.org/2000/svg">
<path d="M11 1.83334C16.0628 1.83334 20.1667 5.93725 20.1667 11C20.1667 16.0628 16.0628 20.1667 11 20.1667C5.93725 20.1667 1.83334 16.0628 1.83334 11C1.83334 5.93725 5.93725 1.83334 11 1.83334ZM11 3.66667C9.05508 3.66667 7.18982 4.43929 5.81455 5.81455C4.43929 7.18982 3.66667 9.05508 3.66667 11C3.66667 12.9449 4.43929 14.8102 5.81455 16.1855C7.18982 17.5607 9.05508 18.3333 11 18.3333C12.9449 18.3333 14.8102 17.5607 16.1855 16.1855C17.5607 14.8102 18.3333 12.9449 18.3333 11C18.3333 9.05508 17.5607 7.18982 16.1855 5.81455C14.8102 4.43929 12.9449 3.66667 11 3.66667ZM11 13.75C11.2431 13.75 11.4763 13.8466 11.6482 14.0185C11.8201 14.1904 11.9167 14.4236 11.9167 14.6667C11.9167 14.9098 11.8201 15.1429 11.6482 15.3149C11.4763 15.4868 11.2431 15.5833 11 15.5833C10.7569 15.5833 10.5237 15.4868 10.3518 15.3149C10.1799 15.1429 10.0833 14.9098 10.0833 14.6667C10.0833 14.4236 10.1799 14.1904 10.3518 14.0185C10.5237 13.8466 10.7569 13.75 11 13.75ZM11 5.5C11.2431 5.5 11.4763 5.59658 11.6482 5.76849C11.8201 5.9404 11.9167 6.17355 11.9167 6.41667V11.9167C11.9167 12.1598 11.8201 12.3929 11.6482 12.5649C11.4763 12.7368 11.2431 12.8333 11 12.8333C10.7569 12.8333 10.5237 12.7368 10.3518 12.5649C10.1799 12.3929 10.0833 12.1598 10.0833 11.9167V6.41667C10.0833 6.17355 10.1799 5.9404 10.3518 5.76849C10.5237 5.59658 10.7569 5.5 11 5.5Z" fill="#5C2A94"/>
</svg>
