<svg width="22" height="22" viewBox="0 0 22 22" fill="none" xmlns="http://www.w3.org/2000/svg">
<path d="M11 1.83333C16.0628 1.83333 20.1667 5.93724 20.1667 11C20.1667 16.0627 16.0628 20.1667 11 20.1667C9.43981 20.1689 7.90507 19.7712 6.54225 19.0117L6.26267 18.8485L3.48334 19.6662C3.33209 19.7107 3.17196 19.7159 3.01814 19.6813C2.86432 19.6466 2.7219 19.5732 2.60438 19.4681C2.48686 19.363 2.39813 19.2296 2.34662 19.0806C2.2951 18.9315 2.2825 18.7718 2.31 18.6166L2.33384 18.5167L3.1515 15.7373C2.28713 14.3085 1.83121 12.6699 1.83334 11C1.83334 5.93724 5.93725 1.83333 11 1.83333ZM11 3.66666C9.68699 3.66642 8.39801 4.01871 7.26764 4.68674C6.13727 5.35477 5.20699 6.31403 4.57395 7.46436C3.94091 8.61468 3.62832 9.91387 3.66883 11.2263C3.70934 12.5386 4.10147 13.8161 4.80425 14.9252C4.98575 15.2112 5.06367 15.5632 5.00225 15.9124L4.9665 16.0618L4.56225 17.4377L5.93817 17.0335C6.33509 16.9162 6.74759 16.9877 7.07484 17.1957C8.0358 17.8042 9.12514 18.1808 10.2567 18.2958C11.3883 18.4107 12.5311 18.2609 13.5948 17.8581C14.6585 17.4553 15.6139 16.8106 16.3856 15.975C17.1572 15.1394 17.7239 14.1357 18.0408 13.0433C18.3577 11.951 18.4162 10.7999 18.2116 9.68101C18.0071 8.56215 17.545 7.50621 16.8621 6.59667C16.1791 5.68713 15.294 4.94892 14.2766 4.4404C13.2592 3.93188 12.1374 3.66699 11 3.66666ZM8.3435 6.58533C8.44509 6.54183 8.55619 6.5253 8.66603 6.53734C8.77588 6.54939 8.88076 6.5896 8.9705 6.65408C9.4325 6.99141 9.79917 7.44424 10.1145 7.88608L10.4143 8.32058L10.5545 8.52683C10.6357 8.64504 10.6756 8.78677 10.668 8.92999C10.6604 9.07322 10.6057 9.20991 10.5123 9.31883L10.4436 9.38849L9.59659 10.0173C9.55628 10.0472 9.52796 10.0905 9.5167 10.1394C9.50544 10.1883 9.51199 10.2396 9.53517 10.2841C9.72767 10.6324 10.0678 11.1522 10.4583 11.5427C10.8497 11.9332 11.3933 12.2962 11.7654 12.5097C11.8461 12.5556 11.9433 12.5409 12.0093 12.4813L12.0441 12.4401L12.595 11.6013C12.696 11.4664 12.8454 11.3759 13.0117 11.3489C13.1781 11.3219 13.3484 11.3605 13.4869 11.4565L13.9847 11.8039C14.4797 12.1568 14.9554 12.5363 15.3322 13.0176C15.4019 13.108 15.4462 13.2154 15.4605 13.3287C15.4749 13.442 15.4587 13.557 15.4138 13.662C15.0508 14.509 14.1313 15.2304 13.1762 15.1956L13.0304 15.1864L12.8553 15.1699L12.7563 15.1571L12.5382 15.1204C11.6912 14.9609 10.3336 14.4806 8.9265 13.0744C7.52034 11.6673 7.04 10.3097 6.8805 9.46274L6.84384 9.24458L6.82092 9.05391L6.809 8.89349L6.80534 8.82474C6.7705 7.86774 7.49559 6.94833 8.3435 6.58533Z" fill="#3C1C5E"/>
</svg>
