<svg width="46" height="46" viewBox="0 0 46 46" fill="none" xmlns="http://www.w3.org/2000/svg">
<path d="M9.58333 40.25C8.52917 40.25 7.62706 39.875 6.877 39.1249C6.12694 38.3749 5.75128 37.4721 5.75 36.4167V9.58333C5.75 8.52917 6.12567 7.62706 6.877 6.877C7.62833 6.12694 8.53044 5.75128 9.58333 5.75H36.4167C37.4708 5.75 38.3736 6.12567 39.1249 6.877C39.8763 7.62833 40.2513 8.53044 40.25 9.58333V36.4167C40.25 37.4708 39.875 38.3736 39.1249 39.1249C38.3749 39.8763 37.4721 40.2513 36.4167 40.25H9.58333ZM9.58333 36.4167H36.4167V15.3333H9.58333V36.4167Z" fill="#5E1C3D"/>
</svg>
