<svg width="46" height="46" viewBox="0 0 46 46" fill="none" xmlns="http://www.w3.org/2000/svg">
<path d="M11.5003 38.3333C11.5003 38.8764 11.3163 39.3319 10.9483 39.6999C10.5803 40.0679 10.1254 40.2513 9.58366 40.25H3.83366C3.2906 40.25 2.83571 40.066 2.46899 39.698C2.10227 39.33 1.91827 38.8751 1.91699 38.3333V32.5833C1.91699 32.0403 2.10099 31.5854 2.46899 31.2187C2.83699 30.8519 3.29188 30.6679 3.83366 30.6667C4.37544 30.6654 4.83096 30.8494 5.20024 31.2187C5.56952 31.5879 5.75288 32.0428 5.75033 32.5833V36.4167H9.58366C10.1267 36.4167 10.5822 36.6007 10.9502 36.9687C11.3182 37.3367 11.5016 37.7916 11.5003 38.3333ZM42.167 30.6667C42.71 30.6667 43.1656 30.8507 43.5336 31.2187C43.9016 31.5867 44.0849 32.0416 44.0837 32.5833V38.3333C44.0837 38.8764 43.8997 39.3319 43.5317 39.6999C43.1637 40.0679 42.7088 40.2513 42.167 40.25H36.417C35.8739 40.25 35.419 40.066 35.0523 39.698C34.6856 39.33 34.5016 38.8751 34.5003 38.3333C34.499 37.7916 34.683 37.3367 35.0523 36.9687C35.4216 36.6007 35.8765 36.4167 36.417 36.4167H40.2503V32.5833C40.2503 32.0403 40.4343 31.5854 40.8023 31.2187C41.1703 30.8519 41.6252 30.6679 42.167 30.6667ZM8.62533 34.5C8.36977 34.5 8.14616 34.4042 7.95449 34.2125C7.76283 34.0208 7.66699 33.7972 7.66699 33.5417V12.4583C7.66699 12.2028 7.76283 11.9792 7.95449 11.7875C8.14616 11.5958 8.36977 11.5 8.62533 11.5H10.542C10.7975 11.5 11.0212 11.5958 11.2128 11.7875C11.4045 11.9792 11.5003 12.2028 11.5003 12.4583V33.5417C11.5003 33.7972 11.4045 34.0208 11.2128 34.2125C11.0212 34.4042 10.7975 34.5 10.542 34.5H8.62533ZM14.3753 34.5C14.1198 34.5 13.8962 34.4042 13.7045 34.2125C13.5128 34.0208 13.417 33.7972 13.417 33.5417V12.4583C13.417 12.2028 13.5128 11.9792 13.7045 11.7875C13.8962 11.5958 14.1198 11.5 14.3753 11.5C14.6309 11.5 14.8545 11.5958 15.0462 11.7875C15.2378 11.9792 15.3337 12.2028 15.3337 12.4583V33.5417C15.3337 33.7972 15.2378 34.0208 15.0462 34.2125C14.8545 34.4042 14.6309 34.5 14.3753 34.5ZM20.1253 34.5C19.8698 34.5 19.6462 34.4042 19.4545 34.2125C19.2628 34.0208 19.167 33.7972 19.167 33.5417V12.4583C19.167 12.2028 19.2628 11.9792 19.4545 11.7875C19.6462 11.5958 19.8698 11.5 20.1253 11.5H22.042C22.2975 11.5 22.5212 11.5958 22.7128 11.7875C22.9045 11.9792 23.0003 12.2028 23.0003 12.4583V33.5417C23.0003 33.7972 22.9045 34.0208 22.7128 34.2125C22.5212 34.4042 22.2975 34.5 22.042 34.5H20.1253ZM25.8753 34.5C25.6198 34.5 25.3962 34.4042 25.2045 34.2125C25.0128 34.0208 24.917 33.7972 24.917 33.5417V12.4583C24.917 12.2028 25.0128 11.9792 25.2045 11.7875C25.3962 11.5958 25.6198 11.5 25.8753 11.5H29.7087C29.9642 11.5 30.1878 11.5958 30.3795 11.7875C30.5712 11.9792 30.667 12.2028 30.667 12.4583V33.5417C30.667 33.7972 30.5712 34.0208 30.3795 34.2125C30.1878 34.4042 29.9642 34.5 29.7087 34.5H25.8753ZM33.542 34.5C33.2864 34.5 33.0628 34.4042 32.8712 34.2125C32.6795 34.0208 32.5837 33.7972 32.5837 33.5417V12.4583C32.5837 12.2028 32.6795 11.9792 32.8712 11.7875C33.0628 11.5958 33.2864 11.5 33.542 11.5C33.7975 11.5 34.0212 11.5958 34.2128 11.7875C34.4045 11.9792 34.5003 12.2028 34.5003 12.4583V33.5417C34.5003 33.7972 34.4045 34.0208 34.2128 34.2125C34.0212 34.4042 33.7975 34.5 33.542 34.5ZM37.3753 34.5C37.1198 34.5 36.8962 34.4042 36.7045 34.2125C36.5128 34.0208 36.417 33.7972 36.417 33.5417V12.4583C36.417 12.2028 36.5128 11.9792 36.7045 11.7875C36.8962 11.5958 37.1198 11.5 37.3753 11.5C37.6309 11.5 37.8545 11.5958 38.0462 11.7875C38.2378 11.9792 38.3337 12.2028 38.3337 12.4583V33.5417C38.3337 33.7972 38.2378 34.0208 38.0462 34.2125C37.8545 34.4042 37.6309 34.5 37.3753 34.5ZM11.5003 7.66667C11.5003 8.20972 11.3163 8.66525 10.9483 9.03325C10.5803 9.40125 10.1254 9.58461 9.58366 9.58333H5.75033V13.4167C5.75033 13.9597 5.56632 14.4152 5.19833 14.7832C4.83033 15.1512 4.37544 15.3346 3.83366 15.3333C3.29188 15.3321 2.83699 15.1481 2.46899 14.7813C2.10099 14.4146 1.91699 13.9597 1.91699 13.4167V7.66667C1.91699 7.12361 2.10099 6.66872 2.46899 6.302C2.83699 5.93528 3.29188 5.75128 3.83366 5.75H9.58366C10.1267 5.75 10.5822 5.934 10.9502 6.302C11.3182 6.67 11.5016 7.12489 11.5003 7.66667ZM34.5003 7.66667C34.5003 7.12361 34.6843 6.66872 35.0523 6.302C35.4203 5.93528 35.8752 5.75128 36.417 5.75H42.167C42.71 5.75 43.1656 5.934 43.5336 6.302C43.9016 6.67 44.0849 7.12489 44.0837 7.66667V13.4167C44.0837 13.9597 43.8997 14.4152 43.5317 14.7832C43.1637 15.1512 42.7088 15.3346 42.167 15.3333C41.6252 15.3321 41.1703 15.1481 40.8023 14.7813C40.4343 14.4146 40.2503 13.9597 40.2503 13.4167V9.58333H36.417C35.8739 9.58333 35.419 9.39933 35.0523 9.03133C34.6856 8.66333 34.5016 8.20844 34.5003 7.66667Z" fill="#5E1C3D"/>
</svg>
