<svg width="46" height="46" viewBox="0 0 46 46" fill="none" xmlns="http://www.w3.org/2000/svg">
<path d="M14.2312 18.1604L21.3708 6.51667C21.5625 6.19722 21.8021 5.9653 22.0896 5.82092C22.3771 5.67653 22.6806 5.60497 23 5.60625C23.3194 5.60753 23.6229 5.67972 23.9104 5.82283C24.1979 5.96594 24.4375 6.19722 24.6292 6.51667L31.7687 18.1604C31.9604 18.4799 32.0562 18.8153 32.0562 19.1667C32.0562 19.5181 31.9764 19.8375 31.8167 20.125C31.6569 20.4125 31.4333 20.6444 31.1458 20.8207C30.8583 20.9971 30.5229 21.0846 30.1396 21.0833H15.8604C15.4771 21.0833 15.1417 20.9958 14.8542 20.8207C14.5667 20.6457 14.3431 20.4138 14.1833 20.125C14.0236 19.8362 13.9437 19.5168 13.9437 19.1667C13.9437 18.8166 14.0396 18.4811 14.2312 18.1604ZM33.5417 42.1667C31.1458 42.1667 29.1097 41.3284 27.4332 39.652C25.7568 37.9756 24.9179 35.9388 24.9167 33.5417C24.9154 31.1446 25.7542 29.1084 27.4332 27.4332C29.1122 25.7581 31.1484 24.9192 33.5417 24.9167C35.9349 24.9141 37.9717 25.753 39.652 27.4332C41.3323 29.1135 42.1705 31.1497 42.1667 33.5417C42.1628 35.9337 41.3246 37.9704 39.652 39.652C37.9794 41.3336 35.9426 42.1718 33.5417 42.1667ZM5.75 39.2917V27.7917C5.75 27.2486 5.934 26.7937 6.302 26.427C6.67 26.0603 7.12489 25.8763 7.66667 25.875H19.1667C19.7097 25.875 20.1652 26.059 20.5332 26.427C20.9012 26.795 21.0846 27.2499 21.0833 27.7917V39.2917C21.0833 39.8347 20.8993 40.2902 20.5313 40.6582C20.1633 41.0262 19.7084 41.2096 19.1667 41.2083H7.66667C7.12361 41.2083 6.66872 41.0243 6.302 40.6563C5.93528 40.2883 5.75128 39.8334 5.75 39.2917ZM33.5417 38.3333C34.8833 38.3333 36.0174 37.8701 36.9437 36.9437C37.8701 36.0174 38.3333 34.8833 38.3333 33.5417C38.3333 32.2 37.8701 31.066 36.9437 30.1396C36.0174 29.2132 34.8833 28.75 33.5417 28.75C32.2 28.75 31.066 29.2132 30.1396 30.1396C29.2132 31.066 28.75 32.2 28.75 33.5417C28.75 34.8833 29.2132 36.0174 30.1396 36.9437C31.066 37.8701 32.2 38.3333 33.5417 38.3333ZM9.58333 37.375H17.25V29.7083H9.58333V37.375ZM19.2625 17.25H26.7375L23 11.2125L19.2625 17.25Z" fill="#5E1C3D"/>
</svg>
