<svg width="46" height="46" viewBox="0 0 46 46" fill="none" xmlns="http://www.w3.org/2000/svg">
<path d="M9.58333 40.25C8.52917 40.25 7.62706 39.875 6.877 39.1249C6.12694 38.3749 5.75128 37.4721 5.75 36.4167V9.58333C5.75 8.52917 6.12567 7.62706 6.877 6.877C7.62833 6.12694 8.53044 5.75128 9.58333 5.75H36.4167C37.4708 5.75 38.3736 6.12567 39.1249 6.877C39.8763 7.62833 40.2513 8.53044 40.25 9.58333V36.4167C40.25 37.4708 39.875 38.3736 39.1249 39.1249C38.3749 39.8763 37.4721 40.2513 36.4167 40.25H9.58333ZM23 30.6667C24.0222 30.6667 24.9646 30.4028 25.8271 29.8751C26.6896 29.3474 27.3924 28.6529 27.9354 27.7917C28.1271 27.5042 28.3667 27.2722 28.6542 27.0959C28.9417 26.9196 29.2611 26.8321 29.6125 26.8333H36.4167V9.58333H9.58333V26.8333H16.3875C16.7389 26.8333 17.0583 26.9215 17.3458 27.0978C17.6333 27.2742 17.8729 27.5054 18.0646 27.7917C18.6076 28.6542 19.3104 29.3493 20.1729 29.877C21.0354 30.4047 21.9778 30.6679 23 30.6667ZM21.0833 18.8792L19.4062 20.5563C19.0229 20.9396 18.568 21.1236 18.0416 21.1082C17.5151 21.0929 17.0596 20.8929 16.675 20.5083C16.3236 20.125 16.1403 19.6778 16.1249 19.1667C16.1096 18.6556 16.2929 18.2083 16.675 17.825L21.6583 12.8417C21.85 12.65 22.0576 12.5146 22.2812 12.4353C22.5049 12.3561 22.7444 12.3159 23 12.3146C23.2556 12.3133 23.4951 12.3536 23.7188 12.4353C23.9424 12.5171 24.15 12.6526 24.3417 12.8417L29.325 17.825C29.7083 18.2083 29.8917 18.6556 29.8751 19.1667C29.8585 19.6778 29.6751 20.125 29.325 20.5083C28.9417 20.8917 28.4868 21.0916 27.9603 21.1082C27.4339 21.1249 26.9784 20.9409 26.5938 20.5563L24.9167 18.8792V24.9167C24.9167 25.4597 24.7327 25.9153 24.3647 26.2833C23.9967 26.6513 23.5418 26.8346 23 26.8333C22.4582 26.8321 22.0033 26.6481 21.6353 26.2813C21.2673 25.9146 21.0833 25.4597 21.0833 24.9167V18.8792Z" fill="#5E1C3D"/>
</svg>
