<svg width="22" height="22" viewBox="0 0 22 22" fill="none" xmlns="http://www.w3.org/2000/svg">
<path d="M4.58333 19.25C4.07917 19.25 3.64772 19.0706 3.289 18.7119C2.93028 18.3532 2.75061 17.9214 2.75 17.4167V4.58333C2.75 4.07917 2.92967 3.64772 3.289 3.289C3.64833 2.93028 4.07978 2.75061 4.58333 2.75H8.25C8.75417 2.75 9.18592 2.92967 9.54525 3.289C9.90458 3.64833 10.0839 4.07978 10.0833 4.58333V17.4167C10.0833 17.9208 9.90397 18.3526 9.54525 18.7119C9.18653 19.0713 8.75478 19.2506 8.25 19.25H4.58333ZM13.75 19.25C13.2458 19.25 12.8144 19.0706 12.4557 18.7119C12.0969 18.3532 11.9173 17.9214 11.9167 17.4167V12.8333C11.9167 12.3292 12.0963 11.8977 12.4557 11.539C12.815 11.1803 13.2464 11.0006 13.75 11H17.4167C17.9208 11 18.3526 11.1797 18.7119 11.539C19.0713 11.8983 19.2506 12.3298 19.25 12.8333V17.4167C19.25 17.9208 19.0706 18.3526 18.7119 18.7119C18.3532 19.0713 17.9214 19.2506 17.4167 19.25H13.75ZM13.75 9.16667C13.2458 9.16667 12.8144 8.98731 12.4557 8.62858C12.0969 8.26986 11.9173 7.83811 11.9167 7.33333V4.58333C11.9167 4.07917 12.0963 3.64772 12.4557 3.289C12.815 2.93028 13.2464 2.75061 13.75 2.75H17.4167C17.9208 2.75 18.3526 2.92967 18.7119 3.289C19.0713 3.64833 19.2506 4.07978 19.25 4.58333V7.33333C19.25 7.8375 19.0706 8.26925 18.7119 8.62858C18.3532 8.98792 17.9214 9.16728 17.4167 9.16667H13.75Z" fill="#5E1C3D"/>
</svg>
