<svg width="22" height="22" viewBox="0 0 22 22" fill="none" xmlns="http://www.w3.org/2000/svg">
<path d="M4.58333 19.25C4.07917 19.25 3.64772 19.0706 3.289 18.7119C2.93028 18.3532 2.75061 17.9214 2.75 17.4167V4.58333C2.75 4.07917 2.92967 3.64772 3.289 3.289C3.64833 2.93028 4.07978 2.75061 4.58333 2.75H17.4167C17.9208 2.75 18.3526 2.92967 18.7119 3.289C19.0713 3.64833 19.2506 4.07978 19.25 4.58333V17.4167C19.25 17.9208 19.0706 18.3526 18.7119 18.7119C18.3532 19.0713 17.9214 19.2506 17.4167 19.25H4.58333ZM4.58333 17.4167H10.0833V4.58333H4.58333V17.4167ZM11.9167 17.4167H17.4167V11H11.9167V17.4167ZM11.9167 9.16667H17.4167V4.58333H11.9167V9.16667Z" fill="#5E1C3D"/>
</svg>
