<svg width="22" height="22" viewBox="0 0 22 22" fill="none" xmlns="http://www.w3.org/2000/svg">
<path d="M6.14167 19.25C5.69861 19.25 5.30536 19.1049 4.96192 18.8146C4.61847 18.5243 4.40825 18.1576 4.33125 17.7146L2.93333 9.32708C2.8875 9.05208 2.95258 8.80397 3.12858 8.58275C3.30458 8.36153 3.53742 8.25061 3.82708 8.25H18.1729C18.4632 8.25 18.6963 8.36092 18.8723 8.58275C19.0483 8.80458 19.1131 9.05269 19.0667 9.32708L17.6687 17.7146C17.5924 18.1576 17.3824 18.5243 17.039 18.8146C16.6956 19.1049 16.302 19.25 15.8583 19.25H6.14167ZM9.16667 13.75H12.8333C13.0931 13.75 13.3109 13.662 13.4869 13.486C13.6629 13.31 13.7506 13.0924 13.75 12.8333C13.7494 12.5742 13.6614 12.3567 13.486 12.1807C13.3106 12.0047 13.0931 11.9167 12.8333 11.9167H9.16667C8.90694 11.9167 8.68939 12.0047 8.514 12.1807C8.33861 12.3567 8.25061 12.5742 8.25 12.8333C8.24939 13.0924 8.33739 13.3103 8.514 13.4869C8.69061 13.6635 8.90817 13.7512 9.16667 13.75ZM5.5 7.33333C5.24028 7.33333 5.02272 7.24533 4.84733 7.06933C4.67194 6.89333 4.58394 6.67578 4.58333 6.41667C4.58272 6.15756 4.67072 5.94 4.84733 5.764C5.02394 5.588 5.2415 5.5 5.5 5.5H16.5C16.7597 5.5 16.9776 5.588 17.1536 5.764C17.3296 5.94 17.4173 6.15756 17.4167 6.41667C17.4161 6.67578 17.3281 6.89364 17.1527 7.07025C16.9773 7.24686 16.7597 7.33456 16.5 7.33333H5.5ZM7.33333 4.58333C7.07361 4.58333 6.85606 4.49533 6.68067 4.31933C6.50528 4.14333 6.41728 3.92578 6.41667 3.66667C6.41606 3.40756 6.50406 3.19 6.68067 3.014C6.85728 2.838 7.07483 2.75 7.33333 2.75H14.6667C14.9264 2.75 15.1442 2.838 15.3202 3.014C15.4962 3.19 15.5839 3.40756 15.5833 3.66667C15.5827 3.92578 15.4947 4.14364 15.3193 4.32025C15.1439 4.49686 14.9264 4.58456 14.6667 4.58333H7.33333Z" fill="#5E1C3D"/>
</svg>
