<svg width="22" height="22" viewBox="0 0 22 22" fill="none" xmlns="http://www.w3.org/2000/svg">
<path d="M3.66667 16.5C3.1625 16.5 2.73106 16.3206 2.37234 15.9619C2.01361 15.6032 1.83395 15.1714 1.83334 14.6667V7.33333C1.83334 6.82917 2.013 6.39772 2.37234 6.039C2.73167 5.68028 3.16311 5.50061 3.66667 5.5H18.3333C18.8375 5.5 19.2693 5.67967 19.6286 6.039C19.9879 6.39833 20.1673 6.82978 20.1667 7.33333V14.6667C20.1667 15.1708 19.9873 15.6026 19.6286 15.9619C19.2699 16.3213 18.8381 16.5006 18.3333 16.5H3.66667ZM3.66667 14.6667H18.3333V7.33333H3.66667V14.6667ZM6.41667 13.75H8.25V11.9167H10.0833V10.0833H8.25V8.25H6.41667V10.0833H4.58334V11.9167H6.41667V13.75ZM14.2661 13.3494C14.5331 13.0817 14.6667 12.7569 14.6667 12.375C14.6667 11.9931 14.5331 11.6686 14.2661 11.4015C13.999 11.1344 13.6742 11.0006 13.2917 11C12.9091 10.9994 12.5846 11.1332 12.3182 11.4015C12.0517 11.6698 11.9179 11.9943 11.9167 12.375C11.9154 12.7557 12.0493 13.0805 12.3182 13.3494C12.5871 13.6183 12.9116 13.7518 13.2917 13.75C13.6718 13.7482 13.9966 13.6146 14.2661 13.3494ZM17.0161 10.5994C17.2831 10.3317 17.4167 10.0069 17.4167 9.625C17.4167 9.24306 17.2831 8.91856 17.0161 8.6515C16.749 8.38444 16.4242 8.25061 16.0417 8.25C15.6591 8.24939 15.3346 8.38322 15.0682 8.6515C14.8017 8.91978 14.6679 9.24428 14.6667 9.625C14.6654 10.0057 14.7993 10.3305 15.0682 10.5994C15.3371 10.8683 15.6616 11.0018 16.0417 11C16.4218 10.9982 16.7466 10.8646 17.0161 10.5994Z" fill="#3C1C5E"/>
</svg>
