<svg width="46" height="46" viewBox="0 0 46 46" fill="none" xmlns="http://www.w3.org/2000/svg">
<path fill-rule="evenodd" clip-rule="evenodd" d="M32.5833 7.66667C34.0458 7.66667 35.2552 8.4985 36.1407 9.3725C37.0626 10.2791 37.9078 11.4981 38.6592 12.8417C40.1676 15.5365 41.4805 19.0574 42.3488 22.5362C43.2113 25.9881 43.6885 29.5933 43.3838 32.4281C43.0771 35.2743 41.6108 38.3333 38.3333 38.3333C35.5043 38.3333 33.2503 36.8767 31.4065 35.3989L30.7338 34.845L29.7908 34.0496L28.9398 33.3443C26.9867 31.763 25.2521 30.6667 23 30.6667C20.7479 30.6667 19.0133 31.763 17.0603 33.3443L16.2093 34.0496L15.2663 34.845L14.5954 35.3989C12.7478 36.8767 10.4938 38.3333 7.66667 38.3333C4.38725 38.3333 2.921 35.2743 2.61625 32.4281C2.31342 29.5914 2.78875 25.9881 3.65125 22.5362C4.5195 19.0574 5.83242 15.5365 7.34084 12.8398C8.09217 11.4981 8.93742 10.2791 9.85934 9.37059C10.7448 8.4985 11.9543 7.66667 13.4167 7.66667C14.4038 7.66667 15.3678 7.90242 16.3166 8.18417L17.4513 8.53109C17.6404 8.58987 17.8288 8.64545 18.0167 8.69784C19.6746 9.17317 21.3708 9.58334 23 9.58334C24.6292 9.58334 26.3254 9.17317 27.9833 8.69784L29.6796 8.18609C30.6341 7.90434 31.6058 7.66667 32.5833 7.66667ZM32.5833 11.5C31.8493 11.5 31.0826 11.7223 30.3389 11.9658L29.4611 12.2552L29.0375 12.3855C27.3413 12.8685 25.2042 13.4167 23 13.4167C20.7958 13.4167 18.6588 12.8685 16.9625 12.3855L16.5408 12.2552L15.6611 11.9658C14.9174 11.7204 14.1508 11.5 13.4167 11.5C12.6155 11.6495 11.8968 12.6213 11.3543 13.5221L11.0515 14.0492L10.6873 14.7123C9.38017 17.0468 8.1765 20.2323 7.3715 23.4658C6.61442 26.4864 6.24642 29.3806 6.38634 31.5349L6.43617 32.0965L6.4745 32.4338L6.532 32.8325C6.66425 33.6011 6.94984 34.5 7.66667 34.5C9.223 34.5 10.5225 33.7257 12.1383 32.4415L12.9107 31.8128L14.3673 30.5938L15.0267 30.0572C17.066 28.4414 19.6171 26.8333 23 26.8333C26.3829 26.8333 28.934 28.4433 30.9733 30.0572L31.6346 30.5938L33.0913 31.8128L33.8618 32.4415C35.4775 33.7257 36.7751 34.5 38.3333 34.5C38.985 34.5 39.2802 33.7583 39.4278 33.0453L39.5006 32.6274L39.5715 32.0198C39.8073 29.8233 39.4431 26.7203 38.6304 23.4658C37.8906 20.5026 36.8173 17.5778 35.6366 15.3123L34.9485 14.0473L34.6457 13.524C34.1033 12.6213 33.3845 11.6495 32.5833 11.5ZM16.2917 15.3333C17.5625 15.3333 18.7813 15.8382 19.6799 16.7368C20.5785 17.6354 21.0833 18.8542 21.0833 20.125C21.0833 21.3958 20.5785 22.6146 19.6799 23.5132C18.7813 24.4118 17.5625 24.9167 16.2917 24.9167C15.0208 24.9167 13.8021 24.4118 12.9035 23.5132C12.0048 22.6146 11.5 21.3958 11.5 20.125C11.5 18.8542 12.0048 17.6354 12.9035 16.7368C13.8021 15.8382 15.0208 15.3333 16.2917 15.3333ZM29.7083 15.3333C30.1778 15.3334 30.6309 15.5058 30.9817 15.8177C31.3325 16.1297 31.5567 16.5595 31.6116 17.0258L31.625 17.25V18.2083H32.5833C33.0719 18.2089 33.5417 18.3959 33.897 18.7313C34.2522 19.0667 34.466 19.525 34.4946 20.0127C34.5232 20.5004 34.3645 20.9806 34.051 21.3552C33.7374 21.7298 33.2927 21.9706 32.8076 22.0283L32.5833 22.0417H31.625V23C31.6245 23.4885 31.4374 23.9584 31.102 24.3136C30.7667 24.6689 30.3083 24.8826 29.8207 24.9113C29.333 24.9399 28.8528 24.7812 28.4782 24.4677C28.1035 24.1541 27.8628 23.7094 27.8051 23.2243L27.7917 23V22.0417H26.8333C26.3448 22.0411 25.8749 21.8541 25.5197 21.5187C25.1645 21.1834 24.9507 20.725 24.9221 20.2373C24.8935 19.7497 25.0521 19.2694 25.3657 18.8948C25.6792 18.5202 26.124 18.2795 26.6091 18.2218L26.8333 18.2083H27.7917V17.25C27.7917 16.7417 27.9936 16.2542 28.353 15.8947C28.7125 15.5353 29.2 15.3333 29.7083 15.3333ZM16.2917 19.1667C16.0375 19.1667 15.7937 19.2676 15.614 19.4474C15.4343 19.6271 15.3333 19.8708 15.3333 20.125C15.3333 20.3792 15.4343 20.6229 15.614 20.8026C15.7937 20.9824 16.0375 21.0833 16.2917 21.0833C16.5458 21.0833 16.7896 20.9824 16.9693 20.8026C17.149 20.6229 17.25 20.3792 17.25 20.125C17.25 19.8708 17.149 19.6271 16.9693 19.4474C16.7896 19.2676 16.5458 19.1667 16.2917 19.1667Z" fill="#3C1C5E"/>
</svg>
