<svg width="44" height="44" viewBox="0 0 44 44" fill="none" xmlns="http://www.w3.org/2000/svg">
<path d="M9.16667 38.5C8.15833 38.5 7.29544 38.1413 6.578 37.4238C5.86056 36.7064 5.50122 35.8429 5.5 34.8333V9.16667C5.5 8.15833 5.85933 7.29544 6.578 6.578C7.29667 5.86056 8.15956 5.50122 9.16667 5.5H34.8333C35.8417 5.5 36.7052 5.85933 37.4238 6.578C38.1425 7.29667 38.5012 8.15956 38.5 9.16667V34.8333C38.5 35.8417 38.1413 36.7052 37.4238 37.4238C36.7064 38.1425 35.8429 38.5012 34.8333 38.5H9.16667ZM9.16667 34.8333H34.8333V9.16667H9.16667V34.8333ZM11 31.1667H33L26.125 22L20.625 29.3333L16.5 23.8333L11 31.1667Z" fill="#3C1C5E"/>
</svg>
