<svg width="40" height="40" viewBox="0 0 40 40" fill="none" xmlns="http://www.w3.org/2000/svg">
<path d="M8.33333 35C7.41667 35 6.63222 34.6739 5.98 34.0217C5.32778 33.3694 5.00111 32.5844 5 31.6667V8.33333C5 7.41667 5.32667 6.63222 5.98 5.98C6.63333 5.32778 7.41778 5.00111 8.33333 5H20C20.4722 5 20.8683 5.16 21.1883 5.48C21.5083 5.8 21.6678 6.19556 21.6667 6.66667C21.6656 7.13778 21.5056 7.53389 21.1867 7.855C20.8678 8.17611 20.4722 8.33556 20 8.33333H8.33333V31.6667H31.6667V21.6667C31.6667 21.1944 31.8267 20.7989 32.1467 20.48C32.4667 20.1611 32.8622 20.0011 33.3333 20C33.8044 19.9989 34.2006 20.1589 34.5217 20.48C34.8428 20.8011 35.0022 21.1967 35 21.6667V31.6667C35 32.5833 34.6739 33.3683 34.0217 34.0217C33.3694 34.675 32.5844 35.0011 31.6667 35H8.33333ZM30 9.70833L28.5 11.1667C28.1944 11.4722 27.8128 11.6317 27.355 11.645C26.8972 11.6583 26.5011 11.4989 26.1667 11.1667C25.8611 10.8611 25.7083 10.4722 25.7083 10C25.7083 9.52778 25.8611 9.13889 26.1667 8.83333L30.5 4.5C30.6667 4.33333 30.8472 4.20833 31.0417 4.125C31.2361 4.04167 31.4444 4 31.6667 4C31.8889 4 32.0972 4.04167 32.2917 4.125C32.4861 4.20833 32.6667 4.33333 32.8333 4.5L37.1667 8.83333C37.4722 9.13889 37.6322 9.52111 37.6467 9.98C37.6611 10.4389 37.5011 10.8344 37.1667 11.1667C36.8611 11.4722 36.4722 11.625 36 11.625C35.5278 11.625 35.1389 11.4722 34.8333 11.1667L33.3333 9.70833V15C33.3333 15.4722 33.1739 15.8683 32.855 16.1883C32.5361 16.5083 32.14 16.6678 31.6667 16.6667C31.1933 16.6656 30.7978 16.5056 30.48 16.1867C30.1622 15.8678 30.0022 15.4722 30 15V9.70833ZM11.6667 28.3333H28.3333C28.6667 28.3333 28.9167 28.1806 29.0833 27.875C29.25 27.5694 29.2222 27.2778 29 27L24.4167 20.875C24.25 20.6528 24.0278 20.5417 23.75 20.5417C23.4722 20.5417 23.25 20.6528 23.0833 20.875L18.75 26.6667L15.6667 22.5417C15.5 22.3194 15.2778 22.2083 15 22.2083C14.7222 22.2083 14.5 22.3194 14.3333 22.5417L11 27C10.7778 27.2778 10.75 27.5694 10.9167 27.875C11.0833 28.1806 11.3333 28.3333 11.6667 28.3333Z" fill="#3C1C5E" fill-opacity="0.7"/>
</svg>
