<svg width="22" height="22" viewBox="0 0 22 22" fill="none" xmlns="http://www.w3.org/2000/svg">
<path d="M2.75 7.33334H19.25V5.04167C19.25 4.65973 19.1165 4.33523 18.8494 4.06817C18.5824 3.80112 18.2576 3.66728 17.875 3.66667H4.125C3.74306 3.66667 3.41856 3.80051 3.1515 4.06817C2.88444 4.33584 2.75061 4.66034 2.75 5.04167V7.33334ZM2.75 12.8333H19.25V9.16667H2.75V12.8333ZM4.125 18.3333H17.875C18.2569 18.3333 18.5817 18.1998 18.8494 17.9328C19.1171 17.6657 19.2506 17.3409 19.25 16.9583V14.6667H2.75V16.9583C2.75 17.3403 2.88383 17.6651 3.1515 17.9328C3.41917 18.2004 3.74367 18.3339 4.125 18.3333ZM4.58333 6.41667C4.32361 6.41667 4.10606 6.32867 3.93067 6.15267C3.75528 5.97667 3.66728 5.75912 3.66667 5.50001C3.66606 5.24089 3.75406 5.02334 3.93067 4.84734C4.10728 4.67134 4.32483 4.58334 4.58333 4.58334C4.84183 4.58334 5.05969 4.67134 5.23692 4.84734C5.41414 5.02334 5.50183 5.24089 5.5 5.50001C5.49817 5.75912 5.41017 5.97698 5.236 6.15359C5.06183 6.3302 4.84428 6.41789 4.58333 6.41667ZM4.58333 11.9167C4.32361 11.9167 4.10606 11.8287 3.93067 11.6527C3.75528 11.4767 3.66728 11.2591 3.66667 11C3.66606 10.7409 3.75406 10.5233 3.93067 10.3473C4.10728 10.1713 4.32483 10.0833 4.58333 10.0833C4.84183 10.0833 5.05969 10.1713 5.23692 10.3473C5.41414 10.5233 5.50183 10.7409 5.5 11C5.49817 11.2591 5.41017 11.477 5.236 11.6536C5.06183 11.8302 4.84428 11.9179 4.58333 11.9167ZM4.58333 17.4167C4.32361 17.4167 4.10606 17.3287 3.93067 17.1527C3.75528 16.9767 3.66728 16.7591 3.66667 16.5C3.66606 16.2409 3.75406 16.0233 3.93067 15.8473C4.10728 15.6713 4.32483 15.5833 4.58333 15.5833C4.84183 15.5833 5.05969 15.6713 5.23692 15.8473C5.41414 16.0233 5.50183 16.2409 5.5 16.5C5.49817 16.7591 5.41017 16.977 5.236 17.1536C5.06183 17.3302 4.84428 17.4179 4.58333 17.4167Z" fill="#5E1C3D"/>
</svg>
