<svg width="22" height="22" viewBox="0 0 22 22" fill="none" xmlns="http://www.w3.org/2000/svg">
<path d="M4.58333 19.25C4.07917 19.25 3.64772 19.0706 3.289 18.7119C2.93028 18.3532 2.75061 17.9214 2.75 17.4167V4.58333C2.75 4.07917 2.92967 3.64772 3.289 3.289C3.64833 2.93028 4.07978 2.75061 4.58333 2.75H17.4167C17.9208 2.75 18.3526 2.92967 18.7119 3.289C19.0713 3.64833 19.2506 4.07978 19.25 4.58333V17.4167C19.25 17.9208 19.0706 18.3526 18.7119 18.7119C18.3532 19.0713 17.9214 19.2506 17.4167 19.25H4.58333ZM4.58333 7.63125H17.4167V4.58333H4.58333V7.63125ZM4.58333 12.5354H17.4167V9.46458H4.58333V12.5354ZM4.58333 17.4167H17.4167V14.3688H4.58333V17.4167ZM6.41667 7.0125C6.15694 7.0125 5.93939 6.9245 5.764 6.7485C5.58861 6.5725 5.50061 6.35494 5.5 6.09583C5.49939 5.83672 5.58739 5.61917 5.764 5.44317C5.94061 5.26717 6.15817 5.17917 6.41667 5.17917C6.67517 5.17917 6.89303 5.26717 7.07025 5.44317C7.24747 5.61917 7.33517 5.83672 7.33333 6.09583C7.3315 6.35494 7.2435 6.57281 7.06933 6.74942C6.89517 6.92603 6.67761 7.01372 6.41667 7.0125ZM6.41667 11.9167C6.15694 11.9167 5.93939 11.8287 5.764 11.6527C5.58861 11.4767 5.50061 11.2591 5.5 11C5.49939 10.7409 5.58739 10.5233 5.764 10.3473C5.94061 10.1713 6.15817 10.0833 6.41667 10.0833C6.67517 10.0833 6.89303 10.1713 7.07025 10.3473C7.24747 10.5233 7.33517 10.7409 7.33333 11C7.3315 11.2591 7.2435 11.477 7.06933 11.6536C6.89517 11.8302 6.67761 11.9179 6.41667 11.9167ZM6.41667 16.8208C6.15694 16.8208 5.93939 16.7328 5.764 16.5568C5.58861 16.3808 5.50061 16.1633 5.5 15.9042C5.49939 15.6451 5.58739 15.4275 5.764 15.2515C5.94061 15.0755 6.15817 14.9875 6.41667 14.9875C6.67517 14.9875 6.89303 15.0755 7.07025 15.2515C7.24747 15.4275 7.33517 15.6451 7.33333 15.9042C7.3315 16.1633 7.2435 16.3811 7.06933 16.5577C6.89517 16.7344 6.67761 16.8221 6.41667 16.8208Z" fill="#5E1C3D"/>
</svg>
