<svg width="46" height="46" viewBox="0 0 46 46" fill="none" xmlns="http://www.w3.org/2000/svg">
<path d="M21.0833 37.2313V24.1021L9.58333 17.4417V30.5708L21.0833 37.2313ZM24.9167 37.2313L36.4167 30.5708V17.4417L24.9167 24.1021V37.2313ZM21.0833 41.6396L7.66667 33.925C7.05972 33.5736 6.58886 33.1104 6.25408 32.5354C5.91931 31.9604 5.75128 31.3215 5.75 30.6188V15.3813C5.75 14.6785 5.91803 14.0396 6.25408 13.4646C6.59014 12.8896 7.061 12.4264 7.66667 12.075L21.0833 4.36043C21.6903 4.00904 22.3292 3.83334 23 3.83334C23.6708 3.83334 24.3097 4.00904 24.9167 4.36043L38.3333 12.075C38.9403 12.4264 39.4118 12.8896 39.7478 13.4646C40.0839 14.0396 40.2513 14.6785 40.25 15.3813V30.6188C40.25 31.3215 40.0826 31.9604 39.7478 32.5354C39.4131 33.1104 38.9416 33.5736 38.3333 33.925L24.9167 41.6396C24.3097 41.991 23.6708 42.1667 23 42.1667C22.3292 42.1667 21.6903 41.991 21.0833 41.6396ZM30.6667 16.3396L34.3562 14.2313L23 7.66668L19.2625 9.82293L30.6667 16.3396ZM23 20.7958L26.7375 18.6396L15.3812 12.075L11.6437 14.2313L23 20.7958Z" fill="#5E1C3D"/>
</svg>
