<svg width="16" height="16" viewBox="0 0 16 16" fill="none" xmlns="http://www.w3.org/2000/svg">
<path d="M2.66666 8.66666C2.1111 8.66666 1.63888 8.47221 1.24999 8.08332C0.861101 7.69443 0.666656 7.22221 0.666656 6.66666C0.666656 6.1111 0.861101 5.63888 1.24999 5.24999C1.63888 4.8611 2.1111 4.66666 2.66666 4.66666C3.22221 4.66666 3.69443 4.8611 4.08332 5.24999C4.47221 5.63888 4.66666 6.1111 4.66666 6.66666C4.66666 7.22221 4.47221 7.69443 4.08332 8.08332C3.69443 8.47221 3.22221 8.66666 2.66666 8.66666ZM1.99999 12.6667C1.8111 12.6667 1.65288 12.6027 1.52532 12.4747C1.39777 12.3467 1.33377 12.1884 1.33332 12C1.33288 11.8115 1.39688 11.6533 1.52532 11.5253C1.65377 11.3973 1.81199 11.3333 1.99999 11.3333H14C14.1889 11.3333 14.3473 11.3973 14.4753 11.5253C14.6033 11.6533 14.6671 11.8115 14.6667 12C14.6662 12.1884 14.6022 12.3469 14.4747 12.4753C14.3471 12.6038 14.1889 12.6675 14 12.6667H1.99999ZM7.99999 8.66666C7.44443 8.66666 6.97221 8.47221 6.58332 8.08332C6.19443 7.69443 5.99999 7.22221 5.99999 6.66666C5.99999 6.1111 6.19443 5.63888 6.58332 5.24999C6.97221 4.8611 7.44443 4.66666 7.99999 4.66666C8.55555 4.66666 9.02777 4.8611 9.41666 5.24999C9.80555 5.63888 9.99999 6.1111 9.99999 6.66666C9.99999 7.22221 9.80555 7.69443 9.41666 8.08332C9.02777 8.47221 8.55555 8.66666 7.99999 8.66666ZM13.3333 8.66666C12.7778 8.66666 12.3055 8.47221 11.9167 8.08332C11.5278 7.69443 11.3333 7.22221 11.3333 6.66666C11.3333 6.1111 11.5278 5.63888 11.9167 5.24999C12.3055 4.8611 12.7778 4.66666 13.3333 4.66666C13.8889 4.66666 14.3611 4.8611 14.75 5.24999C15.1389 5.63888 15.3333 6.1111 15.3333 6.66666C15.3333 7.22221 15.1389 7.69443 14.75 8.08332C14.3611 8.47221 13.8889 8.66666 13.3333 8.66666Z" fill="#5E1C3D"/>
</svg>
