<svg width="16" height="16" viewBox="0 0 16 16" fill="none" xmlns="http://www.w3.org/2000/svg">
<path d="M1.99999 11.3333H14C14.1889 11.3333 14.3473 11.3973 14.4753 11.5253C14.6033 11.6533 14.6671 11.8116 14.6667 12C14.6662 12.1885 14.6022 12.3469 14.4747 12.4753C14.3471 12.6038 14.1889 12.6676 14 12.6667H1.99999C1.8111 12.6667 1.65288 12.6027 1.52533 12.4747C1.39777 12.3467 1.33377 12.1885 1.33333 12C1.33288 11.8116 1.39688 11.6533 1.52533 11.5253C1.65377 11.3973 1.81199 11.3333 1.99999 11.3333ZM2.66666 7.63334L2.34999 8.20001C2.28333 8.32223 2.18333 8.40001 2.04999 8.43334C1.91666 8.46667 1.78888 8.45001 1.66666 8.38334C1.54444 8.31667 1.46666 8.21667 1.43333 8.08334C1.39999 7.95001 1.41666 7.82223 1.48333 7.70001L1.79999 7.13334H1.16666C1.02222 7.13334 0.902882 7.08623 0.80866 6.99201C0.714437 6.89778 0.667104 6.77823 0.66666 6.63334C0.666215 6.48845 0.713549 6.36912 0.80866 6.27534C0.903771 6.18156 1.0231 6.13423 1.16666 6.13334H1.79999L1.48333 5.60001C1.41666 5.47778 1.39999 5.35001 1.43333 5.21667C1.46666 5.08334 1.54444 4.98334 1.66666 4.91667C1.78888 4.85001 1.91666 4.83334 2.04999 4.86667C2.18333 4.90001 2.28333 4.97778 2.34999 5.10001L2.66666 5.63334L2.98333 5.10001C3.04999 4.97778 3.14999 4.90001 3.28333 4.86667C3.41666 4.83334 3.54444 4.85001 3.66666 4.91667C3.78888 4.98334 3.86666 5.08334 3.89999 5.21667C3.93333 5.35001 3.91666 5.47778 3.84999 5.60001L3.53333 6.13334H4.16666C4.3111 6.13334 4.43066 6.18067 4.52533 6.27534C4.61999 6.37001 4.6671 6.48934 4.66666 6.63334C4.66622 6.77734 4.61888 6.89689 4.52466 6.99201C4.43044 7.08712 4.3111 7.13423 4.16666 7.13334H3.53333L3.84999 7.70001C3.91666 7.82223 3.93333 7.95001 3.89999 8.08334C3.86666 8.21667 3.78888 8.31667 3.66666 8.38334C3.54444 8.45001 3.41666 8.46667 3.28333 8.43334C3.14999 8.40001 3.04999 8.32223 2.98333 8.20001L2.66666 7.63334ZM7.99999 7.63334L7.68333 8.20001C7.61666 8.32223 7.51666 8.40001 7.38333 8.43334C7.24999 8.46667 7.12222 8.45001 6.99999 8.38334C6.87777 8.31667 6.79999 8.21667 6.76666 8.08334C6.73333 7.95001 6.74999 7.82223 6.81666 7.70001L7.13333 7.13334H6.49999C6.35555 7.13334 6.23622 7.08623 6.14199 6.99201C6.04777 6.89778 6.00044 6.77823 5.99999 6.63334C5.99955 6.48845 6.04688 6.36912 6.14199 6.27534C6.2371 6.18156 6.35644 6.13423 6.49999 6.13334H7.13333L6.81666 5.60001C6.74999 5.47778 6.73333 5.35001 6.76666 5.21667C6.79999 5.08334 6.87777 4.98334 6.99999 4.91667C7.12222 4.85001 7.24999 4.83334 7.38333 4.86667C7.51666 4.90001 7.61666 4.97778 7.68333 5.10001L7.99999 5.63334L8.31666 5.10001C8.38333 4.97778 8.48333 4.90001 8.61666 4.86667C8.74999 4.83334 8.87777 4.85001 8.99999 4.91667C9.12222 4.98334 9.19999 5.08334 9.23333 5.21667C9.26666 5.35001 9.24999 5.47778 9.18333 5.60001L8.86666 6.13334H9.49999C9.64444 6.13334 9.76377 6.18067 9.85799 6.27534C9.95222 6.37001 9.99955 6.48934 9.99999 6.63334C10.0004 6.77734 9.9531 6.89689 9.85799 6.99201C9.76288 7.08712 9.64355 7.13423 9.49999 7.13334H8.86666L9.18333 7.70001C9.24999 7.82223 9.26666 7.95001 9.23333 8.08334C9.19999 8.21667 9.12222 8.31667 8.99999 8.38334C8.87777 8.45001 8.74999 8.46667 8.61666 8.43334C8.48333 8.40001 8.38333 8.32223 8.31666 8.20001L7.99999 7.63334ZM13.3333 7.63334L13.0167 8.20001C12.95 8.32223 12.85 8.40001 12.7167 8.43334C12.5833 8.46667 12.4555 8.45001 12.3333 8.38334C12.2111 8.31667 12.1333 8.21667 12.1 8.08334C12.0667 7.95001 12.0833 7.82223 12.15 7.70001L12.4667 7.13334H11.8333C11.6889 7.13334 11.5695 7.08623 11.4753 6.99201C11.3811 6.89778 11.3338 6.77823 11.3333 6.63334C11.3329 6.48845 11.3802 6.36912 11.4753 6.27534C11.5704 6.18156 11.6898 6.13423 11.8333 6.13334H12.4667L12.15 5.60001C12.0833 5.47778 12.0667 5.35001 12.1 5.21667C12.1333 5.08334 12.2111 4.98334 12.3333 4.91667C12.4555 4.85001 12.5833 4.83334 12.7167 4.86667C12.85 4.90001 12.95 4.97778 13.0167 5.10001L13.3333 5.63334L13.65 5.10001C13.7167 4.97778 13.8167 4.90001 13.95 4.86667C14.0833 4.83334 14.2111 4.85001 14.3333 4.91667C14.4555 4.98334 14.5333 5.08334 14.5667 5.21667C14.6 5.35001 14.5833 5.47778 14.5167 5.60001L14.2 6.13334H14.8333C14.9778 6.13334 15.0973 6.18067 15.192 6.27534C15.2867 6.37001 15.3338 6.48934 15.3333 6.63334C15.3329 6.77734 15.2855 6.89689 15.1913 6.99201C15.0971 7.08712 14.9778 7.13423 14.8333 7.13334H14.2L14.5167 7.70001C14.5833 7.82223 14.6 7.95001 14.5667 8.08334C14.5333 8.21667 14.4555 8.31667 14.3333 8.38334C14.2111 8.45001 14.0833 8.46667 13.95 8.43334C13.8167 8.40001 13.7167 8.32223 13.65 8.20001L13.3333 7.63334Z" fill="#5E1C3D"/>
</svg>
