<svg width="16" height="16" viewBox="0 0 16 16" fill="none" xmlns="http://www.w3.org/2000/svg">
<path d="M2.66666 8.66666C2.1111 8.66666 1.63888 8.47222 1.24999 8.08333C0.861101 7.69444 0.666656 7.22222 0.666656 6.66666C0.666656 6.11111 0.861101 5.63888 1.24999 5.24999C1.63888 4.86111 2.1111 4.66666 2.66666 4.66666C3.22221 4.66666 3.69443 4.86111 4.08332 5.24999C4.47221 5.63888 4.66666 6.11111 4.66666 6.66666C4.66666 7.22222 4.47221 7.69444 4.08332 8.08333C3.69443 8.47222 3.22221 8.66666 2.66666 8.66666ZM13.3333 8.66666C12.7778 8.66666 12.3055 8.47222 11.9167 8.08333C11.5278 7.69444 11.3333 7.22222 11.3333 6.66666C11.3333 6.11111 11.5278 5.63888 11.9167 5.24999C12.3055 4.86111 12.7778 4.66666 13.3333 4.66666C13.8889 4.66666 14.3611 4.86111 14.75 5.24999C15.1389 5.63888 15.3333 6.11111 15.3333 6.66666C15.3333 7.22222 15.1389 7.69444 14.75 8.08333C14.3611 8.47222 13.8889 8.66666 13.3333 8.66666ZM9.99999 6.66666C9.99999 6.76666 9.99443 6.86666 9.98332 6.96666C9.97221 7.06666 9.94999 7.16666 9.91666 7.26666C9.87221 7.38888 9.78043 7.46377 9.64132 7.49133C9.50221 7.51888 9.37732 7.47733 9.26666 7.36666L7.29999 5.39999C7.19999 5.29999 7.1611 5.18066 7.18332 5.04199C7.20555 4.90333 7.27777 4.80599 7.39999 4.74999C7.49999 4.71666 7.59999 4.69444 7.69999 4.68333C7.79999 4.67222 7.89999 4.66666 7.99999 4.66666C8.55555 4.66666 9.02777 4.86111 9.41666 5.24999C9.80555 5.63888 9.99999 6.11111 9.99999 6.66666ZM1.99999 12.6667C1.8111 12.6667 1.65288 12.6027 1.52532 12.4747C1.39777 12.3467 1.33377 12.1884 1.33332 12C1.33288 11.8115 1.39688 11.6533 1.52532 11.5253C1.65377 11.3973 1.81199 11.3333 1.99999 11.3333H9.46666L1.39999 3.26666C1.27777 3.14444 1.21666 2.98888 1.21666 2.79999C1.21666 2.6111 1.27777 2.45555 1.39999 2.33333C1.52221 2.21111 1.67777 2.14999 1.86666 2.14999C2.05555 2.14999 2.2111 2.21111 2.33332 2.33333L13.6667 13.6667C13.7889 13.7889 13.85 13.9444 13.85 14.1333C13.85 14.3222 13.7889 14.4778 13.6667 14.6C13.5444 14.7222 13.3889 14.7833 13.2 14.7833C13.0111 14.7833 12.8555 14.7222 12.7333 14.6L10.8 12.6667H1.99999Z" fill="#3C1C5E"/>
</svg>
