<svg width="46" height="46" viewBox="0 0 46 46" fill="none" xmlns="http://www.w3.org/2000/svg">
<path d="M9.2 22.425L4.40833 17.6333C4.02499 17.25 3.83333 16.8028 3.83333 16.2917C3.83333 15.7806 4.02499 15.3333 4.40833 14.95L9.2 10.1583C9.58333 9.77501 10.0306 9.58334 10.5417 9.58334C11.0528 9.58334 11.5 9.77501 11.8833 10.1583L16.675 14.95C17.0583 15.3333 17.25 15.7806 17.25 16.2917C17.25 16.8028 17.0583 17.25 16.675 17.6333L11.8833 22.425C11.5 22.8083 11.0528 23 10.5417 23C10.0306 23 9.58333 22.8083 9.2 22.425ZM19.1667 42.1667C18.6236 42.1667 18.1687 41.9827 17.802 41.6147C17.4353 41.2467 17.2513 40.7918 17.25 40.25V32.5833C15.6528 32.4556 14.0715 32.2799 12.5062 32.0563C10.941 31.8326 9.37569 31.5451 7.81041 31.1938C7.26736 31.066 6.82844 30.7625 6.49366 30.2833C6.15888 29.8042 6.07072 29.2931 6.22916 28.75C6.38761 28.2069 6.71536 27.8076 7.21241 27.5521C7.70947 27.2965 8.22824 27.2326 8.76874 27.3604C11.1007 27.9035 13.4569 28.2708 15.8374 28.4625C18.2179 28.6542 20.6054 28.75 23 28.75C25.3946 28.75 27.7827 28.6542 30.1645 28.4625C32.5463 28.2708 34.9019 27.9035 37.2312 27.3604C37.7743 27.2326 38.2937 27.2965 38.7895 27.5521C39.2853 27.8076 39.6124 28.2069 39.7708 28.75C39.9293 29.2931 39.8417 29.8042 39.5082 30.2833C39.1747 30.7625 38.7352 31.066 38.1896 31.1938C36.6243 31.5451 35.059 31.8326 33.4937 32.0563C31.9285 32.2799 30.3472 32.4556 28.75 32.5833V40.25C28.75 40.7931 28.5666 41.2486 28.1999 41.6166C27.8332 41.9846 27.3777 42.1679 26.8333 42.1667H19.1667ZM10.5417 18.4L12.65 16.2917L10.5417 14.1833L8.43333 16.2917L10.5417 18.4ZM18.9271 11.7396C17.809 10.6215 17.25 9.26389 17.25 7.66667C17.25 6.06945 17.809 4.71181 18.9271 3.59376C20.0451 2.4757 21.4028 1.91667 23 1.91667C24.5972 1.91667 25.9549 2.4757 27.0729 3.59376C28.191 4.71181 28.75 6.06945 28.75 7.66667C28.75 9.26389 28.191 10.6215 27.0729 11.7396C25.9549 12.8576 24.5972 13.4167 23 13.4167C21.4028 13.4167 20.0451 12.8576 18.9271 11.7396ZM20.2937 25.7083C19.5423 24.9569 19.1667 24.0542 19.1667 23C19.1667 21.9458 19.5423 21.0437 20.2937 20.2937C21.045 19.5436 21.9471 19.1679 23 19.1667C24.0529 19.1654 24.9556 19.5411 25.7082 20.2937C26.4609 21.0463 26.8359 21.9484 26.8333 23C26.8308 24.0516 26.4557 24.9544 25.7082 25.7083C24.9607 26.4621 24.058 26.8372 23 26.8333C21.942 26.8295 21.0399 26.4545 20.2937 25.7083ZM24.3666 9.03325C24.7333 8.66398 24.9167 8.20845 24.9167 7.66667C24.9167 7.12489 24.7327 6.67001 24.3647 6.30201C23.9967 5.93401 23.5418 5.75001 23 5.75001C22.4582 5.75001 22.0033 5.93401 21.6353 6.30201C21.2673 6.67001 21.0833 7.12489 21.0833 7.66667C21.0833 8.20845 21.2673 8.66398 21.6353 9.03325C22.0033 9.40253 22.4582 9.58589 23 9.58334C23.5418 9.58078 23.9973 9.3987 24.3666 9.03325ZM32.1521 22.0417L29.9479 18.2083C29.7882 17.9208 29.7083 17.6014 29.7083 17.25C29.7083 16.8986 29.7882 16.5792 29.9479 16.2917L32.1521 12.4583C32.3118 12.1389 32.5354 11.8993 32.8229 11.7396C33.1104 11.5799 33.4299 11.5 33.7812 11.5H38.0937C38.4451 11.5 38.7646 11.5799 39.0521 11.7396C39.3396 11.8993 39.5632 12.1389 39.7229 12.4583L41.9271 16.2917C42.0868 16.5792 42.1667 16.8986 42.1667 17.25C42.1667 17.6014 42.0868 17.9208 41.9271 18.2083L39.7229 22.0417C39.5632 22.3611 39.3396 22.6007 39.0521 22.7604C38.7646 22.9201 38.4451 23 38.0937 23H33.7812C33.4299 23 33.1104 22.9201 32.8229 22.7604C32.5354 22.6007 32.3118 22.3611 32.1521 22.0417ZM34.8833 19.1667H36.9917L38.0458 17.25L36.9917 15.3333H34.8833L33.8292 17.25L34.8833 19.1667Z" fill="#3C1C5E"/>
</svg>
