<svg width="22" height="22" viewBox="0 0 22 22" fill="none" xmlns="http://www.w3.org/2000/svg">
<path d="M13.75 14.6667H16.5C16.7597 14.6667 16.9776 14.5787 17.1536 14.4027C17.3296 14.2267 17.4173 14.0091 17.4167 13.75V8.24999C17.4167 7.99027 17.3287 7.77271 17.1527 7.59732C16.9767 7.42193 16.7591 7.33393 16.5 7.33332H13.75C13.4903 7.33332 13.2727 7.42132 13.0973 7.59732C12.9219 7.77332 12.8339 7.99088 12.8333 8.24999V13.75C12.8333 14.0097 12.9213 14.2276 13.0973 14.4036C13.2733 14.5796 13.4909 14.6673 13.75 14.6667ZM14.6667 12.8333V9.16666H15.5833V12.8333H14.6667ZM8.25 14.6667H11C11.2597 14.6667 11.4776 14.5787 11.6536 14.4027C11.8296 14.2267 11.9173 14.0091 11.9167 13.75V8.24999C11.9167 7.99027 11.8287 7.77271 11.6527 7.59732C11.4767 7.42193 11.2591 7.33393 11 7.33332H8.25C7.99027 7.33332 7.77272 7.42132 7.59733 7.59732C7.42194 7.77332 7.33394 7.99088 7.33333 8.24999V13.75C7.33333 14.0097 7.42133 14.2276 7.59733 14.4036C7.77333 14.5796 7.99088 14.6673 8.25 14.6667ZM9.16666 12.8333V9.16666H10.0833V12.8333H9.16666ZM6.41666 13.75V8.24999C6.41666 7.99027 6.32866 7.77271 6.15266 7.59732C5.97666 7.42193 5.75911 7.33393 5.49999 7.33332C5.24088 7.33271 5.02333 7.42071 4.84733 7.59732C4.67133 7.77393 4.58333 7.99149 4.58333 8.24999V13.75C4.58333 14.0097 4.67133 14.2276 4.84733 14.4036C5.02333 14.5796 5.24088 14.6673 5.49999 14.6667C5.75911 14.666 5.97697 14.578 6.15358 14.4027C6.33019 14.2273 6.41788 14.0097 6.41666 13.75ZM1.83333 16.5V5.49999C1.83333 4.99582 2.01299 4.56438 2.37233 4.20566C2.73166 3.84693 3.16311 3.66727 3.66666 3.66666H18.3333C18.8375 3.66666 19.2692 3.84632 19.6286 4.20566C19.9879 4.56499 20.1673 4.99643 20.1667 5.49999V16.5C20.1667 17.0042 19.9873 17.4359 19.6286 17.7952C19.2699 18.1546 18.8381 18.3339 18.3333 18.3333H3.66666C3.16249 18.3333 2.73105 18.154 2.37233 17.7952C2.01361 17.4365 1.83394 17.0048 1.83333 16.5Z" fill="#5E1C3D"/>
</svg>
