<svg width="22" height="22" viewBox="0 0 22 22" fill="none" xmlns="http://www.w3.org/2000/svg">
<path d="M9.16667 7.33333C8.90695 7.33333 8.68939 7.24533 8.514 7.06933C8.33861 6.89333 8.25061 6.67577 8.25 6.41666C8.24939 6.15755 8.33739 5.94 8.514 5.764C8.69061 5.588 8.90817 5.49999 9.16667 5.49999H12.8333C13.0931 5.49999 13.3109 5.588 13.4869 5.764C13.6629 5.94 13.7506 6.15755 13.75 6.41666C13.7494 6.67577 13.6614 6.89363 13.486 7.07024C13.3106 7.24686 13.0931 7.33455 12.8333 7.33333H9.16667ZM6.41667 20.1667C5.9125 20.1667 5.48106 19.9873 5.12233 19.6286C4.76361 19.2699 4.58395 18.8381 4.58333 18.3333C4.58272 17.8286 4.76239 17.3971 5.12233 17.039C5.48228 16.6809 5.91372 16.5012 6.41667 16.5C6.91961 16.4988 7.35136 16.6784 7.71192 17.039C8.07247 17.3996 8.25183 17.831 8.25 18.3333C8.24817 18.8357 8.06881 19.2674 7.71192 19.6286C7.35503 19.9897 6.92328 20.1691 6.41667 20.1667ZM15.5833 20.1667C15.0792 20.1667 14.6477 19.9873 14.289 19.6286C13.9303 19.2699 13.7506 18.8381 13.75 18.3333C13.7494 17.8286 13.9291 17.3971 14.289 17.039C14.6489 16.6809 15.0804 16.5012 15.5833 16.5C16.0863 16.4988 16.518 16.6784 16.8786 17.039C17.2391 17.3996 17.4185 17.831 17.4167 18.3333C17.4148 18.8357 17.2355 19.2674 16.8786 19.6286C16.5217 19.9897 16.0899 20.1691 15.5833 20.1667ZM2.75 3.66666H1.83333C1.57361 3.66666 1.35606 3.57866 1.18067 3.40266C1.00528 3.22666 0.917278 3.00911 0.916667 2.74999C0.916056 2.49088 1.00406 2.27333 1.18067 2.09733C1.35728 1.92133 1.57483 1.83333 1.83333 1.83333H3.34583C3.51389 1.83333 3.67431 1.87916 3.82708 1.97083C3.97986 2.0625 4.09445 2.19236 4.17083 2.36041L7.81458 10.0833H14.2313L17.5542 4.12499C17.6306 3.97222 17.7375 3.85763 17.875 3.78124C18.0125 3.70486 18.1653 3.66666 18.3333 3.66666C18.6847 3.66666 18.9484 3.81577 19.1244 4.11399C19.3004 4.41222 19.3041 4.7138 19.1354 5.01874L15.8583 10.9542C15.6903 11.2597 15.4651 11.4965 15.1828 11.6646C14.9004 11.8326 14.5909 11.9167 14.2542 11.9167H7.425L6.41667 13.75H16.5C16.7597 13.75 16.9776 13.838 17.1536 14.014C17.3296 14.19 17.4173 14.4076 17.4167 14.6667C17.4161 14.9258 17.3281 15.1436 17.1527 15.3202C16.9773 15.4969 16.7597 15.5846 16.5 15.5833H6.41667C5.72917 15.5833 5.20575 15.2854 4.84642 14.6896C4.48708 14.0937 4.47578 13.4903 4.8125 12.8792L6.05 10.6333L2.75 3.66666Z" fill="#5E1C3D"/>
</svg>
