<svg width="46" height="46" viewBox="0 0 46 46" fill="none" xmlns="http://www.w3.org/2000/svg">
<path d="M38.3333 13.4167V40.25C38.3333 40.7583 38.1314 41.2458 37.7719 41.6053C37.4125 41.9647 36.925 42.1667 36.4167 42.1667H9.58332C9.07499 42.1667 8.58748 41.9647 8.22804 41.6053C7.86859 41.2458 7.66666 40.7583 7.66666 40.25V5.74999C7.66666 5.24166 7.86859 4.75415 8.22804 4.39471C8.58748 4.03526 9.07499 3.83333 9.58332 3.83333H28.75M38.3333 13.4167H28.75V3.83333M38.3333 13.4167L28.75 3.83333" stroke="#3C1C5E" stroke-width="3.83333" stroke-linecap="round" stroke-linejoin="round"/>
<path d="M23 29.7083V26.8333C25.1179 26.8333 26.8333 24.9023 26.8333 22.5208C26.8333 20.1394 25.1179 18.2083 23 18.2083C20.8821 18.2083 19.1667 20.1394 19.1667 22.5208" stroke="#3C1C5E" stroke-width="3.83333" stroke-linecap="round" stroke-linejoin="round"/>
<path fill-rule="evenodd" clip-rule="evenodd" d="M23 37.375C23.6354 37.375 24.2448 37.1226 24.6941 36.6733C25.1434 36.224 25.3958 35.6146 25.3958 34.9792C25.3958 34.3437 25.1434 33.7344 24.6941 33.285C24.2448 32.8357 23.6354 32.5833 23 32.5833C22.3646 32.5833 21.7552 32.8357 21.3059 33.285C20.8566 33.7344 20.6042 34.3437 20.6042 34.9792C20.6042 35.6146 20.8566 36.224 21.3059 36.6733C21.7552 37.1226 22.3646 37.375 23 37.375Z" fill="#3C1C5E"/>
</svg>
