<svg width="22" height="22" viewBox="0 0 22 22" fill="none" xmlns="http://www.w3.org/2000/svg">
<path d="M1.83333 4.58334V2.75001C1.83333 2.24584 2.01299 1.81439 2.37233 1.45567C2.73166 1.09695 3.16311 0.917283 3.66666 0.916672H5.49999C5.75972 0.916672 5.97758 1.00467 6.15358 1.18067C6.32958 1.35667 6.41727 1.57423 6.41666 1.83334C6.41605 2.09245 6.32805 2.31031 6.15266 2.48692C5.97727 2.66353 5.75972 2.75123 5.49999 2.75001H3.66666V4.58334C3.66666 4.84306 3.57866 5.06092 3.40266 5.23692C3.22666 5.41292 3.00911 5.50062 2.74999 5.50001C2.49088 5.49939 2.27333 5.41139 2.09733 5.23601C1.92133 5.06062 1.83333 4.84306 1.83333 4.58334ZM18.3333 4.58334V2.75001H16.5C16.2403 2.75001 16.0227 2.66201 15.8473 2.48601C15.6719 2.31001 15.5839 2.09245 15.5833 1.83334C15.5827 1.57423 15.6707 1.35667 15.8473 1.18067C16.0239 1.00467 16.2415 0.916672 16.5 0.916672H18.3333C18.8375 0.916672 19.2692 1.09634 19.6286 1.45567C19.9879 1.81501 20.1673 2.24645 20.1667 2.75001V4.58334C20.1667 4.84306 20.0787 5.06092 19.9027 5.23692C19.7267 5.41292 19.5091 5.50062 19.25 5.50001C18.9909 5.49939 18.7733 5.41139 18.5973 5.23601C18.4213 5.06062 18.3333 4.84306 18.3333 4.58334ZM1.83333 19.25V17.4167C1.83333 17.1569 1.92133 16.9394 2.09733 16.764C2.27333 16.5886 2.49088 16.5006 2.74999 16.5C3.00911 16.4994 3.22697 16.5874 3.40358 16.764C3.58019 16.9406 3.66788 17.1582 3.66666 17.4167V19.25H5.49999C5.75972 19.25 5.97758 19.338 6.15358 19.514C6.32958 19.69 6.41727 19.9076 6.41666 20.1667C6.41605 20.4258 6.32805 20.6436 6.15266 20.8203C5.97727 20.9969 5.75972 21.0846 5.49999 21.0833H3.66666C3.16249 21.0833 2.73105 20.904 2.37233 20.5453C2.01361 20.1865 1.83394 19.7548 1.83333 19.25ZM18.3333 21.0833H16.5C16.2403 21.0833 16.0227 20.9953 15.8473 20.8193C15.6719 20.6433 15.5839 20.4258 15.5833 20.1667C15.5827 19.9076 15.6707 19.69 15.8473 19.514C16.0239 19.338 16.2415 19.25 16.5 19.25H18.3333V17.4167C18.3333 17.1569 18.4213 16.9394 18.5973 16.764C18.7733 16.5886 18.9909 16.5006 19.25 16.5C19.5091 16.4994 19.727 16.5874 19.9036 16.764C20.0802 16.9406 20.1679 17.1582 20.1667 17.4167V19.25C20.1667 19.7542 19.9873 20.1859 19.6286 20.5453C19.2699 20.9046 18.8381 21.084 18.3333 21.0833ZM6.41666 18.3333C5.9125 18.3333 5.48105 18.154 5.12233 17.7953C4.76361 17.4365 4.58394 17.0048 4.58333 16.5V5.50001C4.58333 4.99584 4.76299 4.56439 5.12233 4.20567C5.48166 3.84695 5.91311 3.66728 6.41666 3.66667H15.5833C16.0875 3.66667 16.5192 3.84634 16.8786 4.20567C17.2379 4.56501 17.4173 4.99645 17.4167 5.50001V16.5C17.4167 17.0042 17.2373 17.4359 16.8786 17.7953C16.5199 18.1546 16.0881 18.334 15.5833 18.3333H6.41666ZM9.16666 9.16667H12.8333C13.0931 9.16667 13.3109 9.07867 13.4869 8.90267C13.6629 8.72667 13.7506 8.50912 13.75 8.25001C13.7494 7.99089 13.6614 7.77334 13.486 7.59734C13.3106 7.42134 13.0931 7.33334 12.8333 7.33334H9.16666C8.90694 7.33334 8.68938 7.42134 8.514 7.59734C8.33861 7.77334 8.25061 7.99089 8.25 8.25001C8.24938 8.50912 8.33738 8.72698 8.514 8.90359C8.69061 9.0802 8.90816 9.16789 9.16666 9.16667ZM9.16666 11.9167H12.8333C13.0931 11.9167 13.3109 11.8287 13.4869 11.6527C13.6629 11.4767 13.7506 11.2591 13.75 11C13.7494 10.7409 13.6614 10.5233 13.486 10.3473C13.3106 10.1713 13.0931 10.0833 12.8333 10.0833H9.16666C8.90694 10.0833 8.68938 10.1713 8.514 10.3473C8.33861 10.5233 8.25061 10.7409 8.25 11C8.24938 11.2591 8.33738 11.477 8.514 11.6536C8.69061 11.8302 8.90816 11.9179 9.16666 11.9167ZM9.16666 14.6667H12.8333C13.0931 14.6667 13.3109 14.5787 13.4869 14.4027C13.6629 14.2267 13.7506 14.0091 13.75 13.75C13.7494 13.4909 13.6614 13.2733 13.486 13.0973C13.3106 12.9213 13.0931 12.8333 12.8333 12.8333H9.16666C8.90694 12.8333 8.68938 12.9213 8.514 13.0973C8.33861 13.2733 8.25061 13.4909 8.25 13.75C8.24938 14.0091 8.33738 14.227 8.514 14.4036C8.69061 14.5802 8.90816 14.6679 9.16666 14.6667Z" fill="#5E1C3D"/>
</svg>
