<svg width="32" height="32" viewBox="0 0 32 32" fill="none" xmlns="http://www.w3.org/2000/svg">
<rect width="32" height="32" rx="8" fill="#4DE373"/>
<path d="M15.466 14.716C15.322 14.8595 15.25 15.0375 15.25 15.25V17.65L14.575 16.975C14.4375 16.8375 14.2625 16.7688 14.05 16.7688C13.8375 16.7688 13.6625 16.8375 13.525 16.975C13.3875 17.1125 13.3188 17.2875 13.3188 17.5C13.3188 17.7125 13.3875 17.8875 13.525 18.025L15.475 19.975C15.625 20.125 15.8 20.2 16 20.2C16.2 20.2 16.375 20.125 16.525 19.975L18.475 18.025C18.6125 17.8875 18.6812 17.7125 18.6812 17.5C18.6812 17.2875 18.6125 17.1125 18.475 16.975C18.3375 16.8375 18.1625 16.7688 17.95 16.7688C17.7375 16.7688 17.5625 16.8375 17.425 16.975L16.75 17.65V15.25C16.75 15.0375 16.678 14.8595 16.534 14.716C16.39 14.5725 16.212 14.5005 16 14.5C15.788 14.4995 15.61 14.5715 15.466 14.716ZM10.75 13V21.25H21.25V13H10.75ZM10.75 22.75C10.3375 22.75 9.9845 22.6033 9.691 22.3098C9.3975 22.0163 9.2505 21.663 9.25 21.25V11.8938C9.25 11.7188 9.27825 11.55 9.33475 11.3875C9.39125 11.225 9.4755 11.075 9.5875 10.9375L10.525 9.79375C10.6625 9.61875 10.8343 9.48425 11.0403 9.39025C11.2463 9.29625 11.462 9.2495 11.6875 9.25H20.3125C20.5375 9.25 20.7533 9.297 20.9598 9.391C21.1663 9.485 21.338 9.61925 21.475 9.79375L22.4125 10.9375C22.525 11.075 22.6095 11.225 22.666 11.3875C22.7225 11.55 22.7505 11.7188 22.75 11.8938V21.25C22.75 21.6625 22.6033 22.0158 22.3098 22.3098C22.0163 22.6038 21.663 22.7505 21.25 22.75H10.75ZM11.05 11.5H20.95L20.3125 10.75H11.6875L11.05 11.5Z" fill="white"/>
</svg>
