<svg width="46" height="46" viewBox="0 0 46 46" fill="none" xmlns="http://www.w3.org/2000/svg">
<path d="M7.66668 38.3333V21.0833C6.61251 21.0833 5.7104 20.7083 4.96034 19.9583C4.21029 19.2082 3.83462 18.3054 3.83334 17.25V13.4167C3.83334 12.3625 4.20901 11.4604 4.96034 10.7103C5.71168 9.96028 6.61379 9.58462 7.66668 9.58334H13.8C13.6403 9.29584 13.5368 8.99237 13.4895 8.67292C13.4422 8.35348 13.418 8.01806 13.4167 7.66667C13.4167 6.06945 13.9757 4.71181 15.0938 3.59376C16.2118 2.4757 17.5695 1.91667 19.1667 1.91667C19.9014 1.91667 20.5882 2.05276 21.2271 2.32492C21.866 2.59709 22.457 2.97212 23 3.45C23.5431 2.93889 24.134 2.55556 24.7729 2.30001C25.4118 2.04445 26.0986 1.91667 26.8333 1.91667C28.4306 1.91667 29.7882 2.4757 30.9063 3.59376C32.0243 4.71181 32.5833 6.06945 32.5833 7.66667C32.5833 8.01806 32.5514 8.34581 32.4875 8.64992C32.4236 8.95403 32.3278 9.26517 32.2 9.58334H38.3333C39.3875 9.58334 40.2903 9.959 41.0416 10.7103C41.7929 11.4617 42.168 12.3638 42.1667 13.4167V17.25C42.1667 18.3042 41.7916 19.2069 41.0416 19.9583C40.2915 20.7096 39.3888 21.0846 38.3333 21.0833V38.3333C38.3333 39.3875 37.9583 40.2903 37.2083 41.0416C36.4582 41.7929 35.5555 42.1679 34.5 42.1667H11.5C10.4458 42.1667 9.54373 41.7916 8.79368 41.0416C8.04362 40.2915 7.66795 39.3888 7.66668 38.3333ZM25.4687 6.30009C25.1007 6.66809 24.9167 7.12362 24.9167 7.66667C24.9167 8.20973 25.1007 8.66525 25.4687 9.03325C25.8367 9.40125 26.2916 9.58462 26.8333 9.58334C27.3751 9.58206 27.8306 9.39806 28.1999 9.03134C28.5692 8.66462 28.7526 8.20973 28.75 7.66667C28.7475 7.12362 28.5635 6.66873 28.198 6.30201C27.8326 5.93528 27.3777 5.75128 26.8333 5.75001C26.289 5.74873 25.8341 5.93273 25.4687 6.30201M17.25 7.66667C17.25 8.20973 17.434 8.66525 17.802 9.03325C18.17 9.40125 18.6249 9.58462 19.1667 9.58334C19.7085 9.58206 20.164 9.39806 20.5333 9.03134C20.9025 8.66462 21.0859 8.20973 21.0833 7.66667C21.0808 7.12362 20.8968 6.66873 20.5313 6.30201C20.1659 5.93528 19.711 5.75128 19.1667 5.75001C18.6223 5.74873 18.1675 5.93273 17.802 6.30201C17.4366 6.67128 17.2526 7.12617 17.25 7.66667ZM7.66668 13.4167V17.25H21.0833V13.4167H7.66668ZM21.0833 38.3333V21.0833H11.5V38.3333H21.0833ZM24.9167 38.3333H34.5V21.0833H24.9167V38.3333ZM38.3333 17.25V13.4167H24.9167V17.25H38.3333Z" fill="#3C1C5E"/>
</svg>
