<svg width="22" height="22" viewBox="0 0 22 22" fill="none" xmlns="http://www.w3.org/2000/svg">
<path d="M18.2417 11.605C18.0947 11.4377 18.0137 11.2227 18.0137 11C18.0137 10.7773 18.0947 10.5623 18.2417 10.395L19.415 9.07501C19.5443 8.93079 19.6246 8.74932 19.6443 8.55664C19.6641 8.36396 19.6223 8.16997 19.525 8.00251L17.6917 4.83084C17.5953 4.66357 17.4486 4.53098 17.2725 4.45197C17.0964 4.37296 16.8998 4.35157 16.7108 4.39084L14.9875 4.73917C14.7682 4.78448 14.5399 4.74796 14.3457 4.63651C14.1515 4.52505 14.0048 4.34637 13.9333 4.13417L13.3742 2.45667C13.3127 2.2746 13.1955 2.11647 13.0392 2.00461C12.883 1.89276 12.6955 1.83284 12.5033 1.83334H8.83667C8.63677 1.82291 8.43896 1.87819 8.27343 1.99074C8.10791 2.1033 7.98378 2.26694 7.92 2.45667L7.40667 4.13417C7.33517 4.34637 7.18847 4.52505 6.99427 4.63651C6.80006 4.74796 6.57178 4.78448 6.3525 4.73917L4.58333 4.39084C4.40417 4.36552 4.22152 4.39379 4.0584 4.47209C3.89528 4.55039 3.75898 4.67521 3.66667 4.83084L1.83333 8.00251C1.73356 8.1681 1.6887 8.361 1.70517 8.55363C1.72163 8.74625 1.79857 8.92874 1.925 9.07501L3.08917 10.395C3.23612 10.5623 3.31717 10.7773 3.31717 11C3.31717 11.2227 3.23612 11.4377 3.08917 11.605L1.925 12.925C1.79857 13.0713 1.72163 13.2538 1.70517 13.4464C1.6887 13.639 1.73356 13.8319 1.83333 13.9975L3.66667 17.1692C3.76301 17.3364 3.90969 17.469 4.08581 17.548C4.26194 17.6271 4.4585 17.6484 4.6475 17.6092L6.37083 17.2608C6.59011 17.2155 6.8184 17.252 7.0126 17.3635C7.20681 17.475 7.3535 17.6536 7.425 17.8658L7.98417 19.5433C8.04795 19.7331 8.17208 19.8967 8.3376 20.0093C8.50312 20.1218 8.70094 20.1771 8.90083 20.1667H12.5675C12.7597 20.1672 12.9471 20.1073 13.1034 19.9954C13.2597 19.8835 13.3768 19.7254 13.4383 19.5433L13.9975 17.8658C14.069 17.6536 14.2157 17.475 14.4099 17.3635C14.6041 17.252 14.8324 17.2155 15.0517 17.2608L16.775 17.6092C16.964 17.6484 17.1606 17.6271 17.3367 17.548C17.5128 17.469 17.6595 17.3364 17.7558 17.1692L19.5892 13.9975C19.6865 13.83 19.7283 13.6361 19.7085 13.4434C19.6887 13.2507 19.6085 13.0692 19.4792 12.925L18.2417 11.605ZM16.8758 12.8333L17.6092 13.6583L16.4358 15.6933L15.3542 15.4733C14.694 15.3384 14.0072 15.4505 13.4242 15.7885C12.8412 16.1264 12.4026 16.6667 12.1917 17.3067L11.8433 18.3333H9.49666L9.16667 17.2883C8.9557 16.6484 8.5171 16.1081 7.93412 15.7702C7.35114 15.4322 6.66437 15.3201 6.00417 15.455L4.9225 15.675L3.73083 13.6492L4.46417 12.8242C4.91512 12.32 5.16444 11.6673 5.16444 10.9908C5.16444 10.3144 4.91512 9.66169 4.46417 9.15751L3.73083 8.33251L4.90417 6.31584L5.98583 6.53584C6.64603 6.67079 7.33281 6.55865 7.91579 6.22069C8.49876 5.88273 8.93737 5.34248 9.14833 4.70251L9.49666 3.66667H11.8433L12.1917 4.71167C12.4026 5.35165 12.8412 5.8919 13.4242 6.22985C14.0072 6.56781 14.694 6.67996 15.3542 6.54501L16.4358 6.32501L17.6092 8.36001L16.8758 9.18501C16.4299 9.68804 16.1837 10.337 16.1837 11.0092C16.1837 11.6814 16.4299 12.3303 16.8758 12.8333ZM10.67 7.33334C9.9448 7.33334 9.23589 7.54839 8.63291 7.95128C8.02993 8.35418 7.55996 8.92684 7.28244 9.59683C7.00492 10.2668 6.93231 11.0041 7.07379 11.7153C7.21526 12.4266 7.56448 13.0799 8.07727 13.5927C8.59007 14.1055 9.2434 14.4547 9.95467 14.5962C10.6659 14.7377 11.4032 14.6651 12.0732 14.3876C12.7432 14.11 13.3158 13.6401 13.7187 13.0371C14.1216 12.4341 14.3367 11.7252 14.3367 11C14.3367 10.0275 13.9504 9.09491 13.2627 8.40728C12.5751 7.71965 11.6425 7.33334 10.67 7.33334ZM10.67 12.8333C10.3074 12.8333 9.95294 12.7258 9.65145 12.5244C9.34996 12.3229 9.11498 12.0366 8.97622 11.7016C8.83746 11.3666 8.80115 10.998 8.87189 10.6423C8.94263 10.2867 9.11724 9.96004 9.37364 9.70364C9.63003 9.44725 9.9567 9.27264 10.3123 9.2019C10.668 9.13116 11.0366 9.16747 11.3716 9.30623C11.7066 9.44499 11.9929 9.67997 12.1944 9.98146C12.3958 10.283 12.5033 10.6374 12.5033 11C12.5033 11.4862 12.3102 11.9526 11.9664 12.2964C11.6225 12.6402 11.1562 12.8333 10.67 12.8333Z" fill="#3C1C5E"/>
</svg>
