<svg width="22" height="22" viewBox="0 0 22 22" fill="none" xmlns="http://www.w3.org/2000/svg">
<path d="M11.0107 8.39179C10.3684 8.39179 9.7668 8.64101 9.31133 9.09648C8.85801 9.55195 8.60664 10.1535 8.60664 10.7959C8.60664 11.4383 8.85801 12.0398 9.31133 12.4953C9.7668 12.9486 10.3684 13.2 11.0107 13.2C11.6531 13.2 12.2547 12.9486 12.7102 12.4953C13.1635 12.0398 13.4148 11.4383 13.4148 10.7959C13.4148 10.1535 13.1635 9.55195 12.7102 9.09648C12.4877 8.8723 12.2229 8.69457 11.9312 8.5736C11.6394 8.45262 11.3266 8.39082 11.0107 8.39179ZM19.8688 13.4514L18.4637 12.2504C18.5303 11.8422 18.5647 11.4254 18.5647 11.0107C18.5647 10.5961 18.5303 10.1771 18.4637 9.77109L19.8688 8.57011C19.9749 8.47925 20.0509 8.35822 20.0866 8.22314C20.1222 8.08805 20.116 7.9453 20.0686 7.81386L20.0492 7.758C19.6625 6.67667 19.0831 5.67435 18.3391 4.7996L18.3004 4.75449C18.21 4.64825 18.0896 4.57188 17.955 4.53545C17.8204 4.49901 17.6779 4.50422 17.5463 4.55038L15.8018 5.17128C15.1572 4.64277 14.4397 4.22597 13.6619 3.93593L13.3246 2.11191C13.2992 1.9745 13.2325 1.84809 13.1335 1.74946C13.0345 1.65084 12.9078 1.58467 12.7703 1.55976L12.7123 1.54902C11.5951 1.34706 10.4178 1.34706 9.30059 1.54902L9.24258 1.55976C9.10507 1.58467 8.9784 1.65084 8.8794 1.74946C8.78039 1.84809 8.71373 1.9745 8.68828 2.11191L8.34883 3.94453C7.57846 4.23686 6.8608 4.65265 6.22403 5.17558L4.4666 4.55038C4.33505 4.50385 4.19244 4.49846 4.05775 4.53492C3.92305 4.57137 3.80263 4.64795 3.7125 4.75449L3.67383 4.7996C2.93109 5.67528 2.35182 6.67735 1.96367 7.758L1.94434 7.81386C1.84766 8.08242 1.92715 8.3832 2.14414 8.57011L3.56641 9.78398C3.49981 10.1879 3.46758 10.6004 3.46758 11.0086C3.46758 11.4211 3.49981 11.8336 3.56641 12.2332L2.14844 13.4471C2.0423 13.5379 1.96633 13.659 1.93064 13.794C1.89495 13.9291 1.90123 14.0719 1.94864 14.2033L1.96797 14.2592C2.35684 15.3398 2.93047 16.3389 3.67813 17.2176L3.7168 17.2627C3.80715 17.3689 3.92757 17.4453 4.06219 17.4817C4.1968 17.5182 4.3393 17.513 4.4709 17.4668L6.22832 16.8416C6.86856 17.368 7.58184 17.7848 8.35313 18.0727L8.69258 19.9053C8.71803 20.0427 8.78469 20.1691 8.88369 20.2677C8.9827 20.3663 9.10937 20.4325 9.24688 20.4574L9.30489 20.4682C10.4331 20.6712 11.5884 20.6712 12.7166 20.4682L12.7746 20.4574C12.9121 20.4325 13.0388 20.3663 13.1378 20.2677C13.2368 20.1691 13.3035 20.0427 13.3289 19.9053L13.6662 18.0812C14.4439 17.7891 15.1615 17.3744 15.8061 16.8459L17.5506 17.4668C17.6821 17.5133 17.8247 17.5187 17.9594 17.4823C18.0941 17.4458 18.2146 17.3692 18.3047 17.2627L18.3434 17.2176C19.091 16.3346 19.6647 15.3398 20.0535 14.2592L20.0729 14.2033C20.1652 13.9369 20.0857 13.6383 19.8688 13.4514ZM11.0107 14.5728C8.92461 14.5728 7.23379 12.882 7.23379 10.7959C7.23379 8.70976 8.92461 7.01894 11.0107 7.01894C13.0969 7.01894 14.7877 8.70976 14.7877 10.7959C14.7877 12.882 13.0969 14.5728 11.0107 14.5728Z" fill="#3C1C5E"/>
</svg>
