<svg width="46" height="46" viewBox="0 0 46 46" fill="none" xmlns="http://www.w3.org/2000/svg">
<path d="M7.66667 9.58333C7.12362 9.58333 6.66873 9.39933 6.30201 9.03133C5.93528 8.66333 5.75128 8.20844 5.75001 7.66667C5.74873 7.12489 5.93273 6.67 6.30201 6.302C6.67128 5.934 7.12617 5.75 7.66667 5.75C8.20717 5.75 8.6627 5.934 9.03326 6.302C9.40381 6.67 9.58717 7.12489 9.58334 7.66667C9.57951 8.20844 9.39551 8.66397 9.03134 9.03325C8.66717 9.40253 8.21228 9.58589 7.66667 9.58333ZM15.3333 9.58333C14.7903 9.58333 14.3354 9.39933 13.9687 9.03133C13.602 8.66333 13.418 8.20844 13.4167 7.66667C13.4154 7.12489 13.5994 6.67 13.9687 6.302C14.338 5.934 14.7928 5.75 15.3333 5.75C15.8738 5.75 16.3294 5.934 16.6999 6.302C17.0705 6.67 17.2538 7.12489 17.25 7.66667C17.2462 8.20844 17.0622 8.66397 16.698 9.03325C16.3338 9.40253 15.879 9.58589 15.3333 9.58333ZM23 9.58333C22.457 9.58333 22.0021 9.39933 21.6353 9.03133C21.2686 8.66333 21.0846 8.20844 21.0833 7.66667C21.0821 7.12489 21.2661 6.67 21.6353 6.302C22.0046 5.934 22.4595 5.75 23 5.75C23.5405 5.75 23.996 5.934 24.3666 6.302C24.7371 6.67 24.9205 7.12489 24.9167 7.66667C24.9128 8.20844 24.7288 8.66397 24.3647 9.03325C24.0005 9.40253 23.5456 9.58589 23 9.58333ZM7.66667 17.25C7.12362 17.25 6.66873 17.066 6.30201 16.698C5.93528 16.33 5.75128 15.8751 5.75001 15.3333C5.74873 14.7916 5.93273 14.3367 6.30201 13.9687C6.67128 13.6007 7.12617 13.4167 7.66667 13.4167C8.20717 13.4167 8.6627 13.6007 9.03326 13.9687C9.40381 14.3367 9.58717 14.7916 9.58334 15.3333C9.57951 15.8751 9.39551 16.3306 9.03134 16.6999C8.66717 17.0692 8.21228 17.2526 7.66667 17.25ZM7.66667 24.9167C7.12362 24.9167 6.66873 24.7327 6.30201 24.3647C5.93528 23.9967 5.75128 23.5418 5.75001 23C5.74873 22.4582 5.93273 22.0033 6.30201 21.6353C6.67128 21.2673 7.12617 21.0833 7.66667 21.0833C8.20717 21.0833 8.6627 21.2673 9.03326 21.6353C9.40381 22.0033 9.58717 22.4582 9.58334 23C9.57951 23.5418 9.39551 23.9973 9.03134 24.3666C8.66717 24.7359 8.21228 24.9192 7.66667 24.9167ZM38.3333 24.9167C37.7903 24.9167 37.3354 24.7327 36.9687 24.3647C36.602 23.9967 36.418 23.5418 36.4167 23C36.4154 22.4582 36.5994 22.0033 36.9687 21.6353C37.338 21.2673 37.7928 21.0833 38.3333 21.0833C38.8738 21.0833 39.3294 21.2673 39.6999 21.6353C40.0705 22.0033 40.2538 22.4582 40.25 23C40.2462 23.5418 40.0622 23.9973 39.698 24.3666C39.3338 24.7359 38.879 24.9192 38.3333 24.9167ZM38.3333 32.5833C37.7903 32.5833 37.3354 32.3993 36.9687 32.0313C36.602 31.6633 36.418 31.2084 36.4167 30.6667C36.4154 30.1249 36.5994 29.67 36.9687 29.302C37.338 28.934 37.7928 28.75 38.3333 28.75C38.8738 28.75 39.3294 28.934 39.6999 29.302C40.0705 29.67 40.2538 30.1249 40.25 30.6667C40.2462 31.2084 40.0622 31.664 39.698 32.0332C39.3338 32.4025 38.879 32.5859 38.3333 32.5833ZM23 40.25C22.457 40.25 22.0021 40.066 21.6353 39.698C21.2686 39.33 21.0846 38.8751 21.0833 38.3333C21.0821 37.7916 21.2661 37.3367 21.6353 36.9687C22.0046 36.6007 22.4595 36.4167 23 36.4167C23.5405 36.4167 23.996 36.6007 24.3666 36.9687C24.7371 37.3367 24.9205 37.7916 24.9167 38.3333C24.9128 38.8751 24.7288 39.3306 24.3647 39.6999C24.0005 40.0692 23.5456 40.2526 23 40.25ZM30.6667 40.25C30.1236 40.25 29.6687 40.066 29.302 39.698C28.9353 39.33 28.7513 38.8751 28.75 38.3333C28.7487 37.7916 28.9327 37.3367 29.302 36.9687C29.6713 36.6007 30.1262 36.4167 30.6667 36.4167C31.2072 36.4167 31.6627 36.6007 32.0333 36.9687C32.4038 37.3367 32.5872 37.7916 32.5833 38.3333C32.5795 38.8751 32.3955 39.3306 32.0313 39.6999C31.6672 40.0692 31.2123 40.2526 30.6667 40.25ZM38.3333 40.25C37.7903 40.25 37.3354 40.066 36.9687 39.698C36.602 39.33 36.418 38.8751 36.4167 38.3333C36.4154 37.7916 36.5994 37.3367 36.9687 36.9687C37.338 36.6007 37.7928 36.4167 38.3333 36.4167C38.8738 36.4167 39.3294 36.6007 39.6999 36.9687C40.0705 37.3367 40.2538 37.7916 40.25 38.3333C40.2462 38.8751 40.0622 39.3306 39.698 39.6999C39.3338 40.0692 38.879 40.2526 38.3333 40.25ZM36.4167 15.3333V9.58333H30.6667C30.1236 9.58333 29.6687 9.39933 29.302 9.03133C28.9353 8.66333 28.7513 8.20844 28.75 7.66667C28.7487 7.12489 28.9327 6.67 29.302 6.302C29.6713 5.934 30.1262 5.75 30.6667 5.75H36.4167C37.4708 5.75 38.3736 6.12567 39.1249 6.877C39.8763 7.62833 40.2513 8.53044 40.25 9.58333V15.3333C40.25 15.8764 40.066 16.3319 39.698 16.6999C39.33 17.0679 38.8751 17.2513 38.3333 17.25C37.7916 17.2487 37.3367 17.0647 36.9687 16.698C36.6007 16.3313 36.4167 15.8764 36.4167 15.3333ZM5.75001 36.4167V30.6667C5.75001 30.1236 5.93401 29.6687 6.30201 29.302C6.67001 28.9353 7.1249 28.7513 7.66667 28.75C8.20845 28.7487 8.66398 28.9327 9.03326 29.302C9.40253 29.6713 9.5859 30.1262 9.58334 30.6667V36.4167H15.3333C15.8764 36.4167 16.3319 36.6007 16.6999 36.9687C17.0679 37.3367 17.2513 37.7916 17.25 38.3333C17.2487 38.8751 17.0647 39.3306 16.698 39.6999C16.3313 40.0692 15.8764 40.2526 15.3333 40.25H9.58334C8.52917 40.25 7.62706 39.875 6.87701 39.1249C6.12695 38.3749 5.75128 37.4721 5.75001 36.4167Z" fill="#5E1C3D"/>
</svg>
