<svg width="22" height="22" viewBox="0 0 22 22" fill="none" xmlns="http://www.w3.org/2000/svg">
<path d="M12.8333 11.9167C12.0694 11.9167 11.4201 11.6493 10.8854 11.1146C10.3507 10.5799 10.0833 9.93055 10.0833 9.16666C10.0833 8.40277 10.3507 7.75346 10.8854 7.21874C11.4201 6.68402 12.0694 6.41666 12.8333 6.41666C13.5972 6.41666 14.2465 6.68402 14.7812 7.21874C15.316 7.75346 15.5833 8.40277 15.5833 9.16666C15.5833 9.93055 15.316 10.5799 14.7812 11.1146C14.2465 11.6493 13.5972 11.9167 12.8333 11.9167ZM6.41666 14.6667C5.9125 14.6667 5.48105 14.4873 5.12233 14.1286C4.76361 13.7699 4.58394 13.3381 4.58333 12.8333V5.49999C4.58333 4.99582 4.763 4.56438 5.12233 4.20566C5.48166 3.84693 5.91311 3.66727 6.41666 3.66666H19.25C19.7542 3.66666 20.1859 3.84632 20.5452 4.20566C20.9046 4.56499 21.0839 4.99643 21.0833 5.49999V12.8333C21.0833 13.3375 20.904 13.7692 20.5452 14.1286C20.1865 14.4879 19.7548 14.6673 19.25 14.6667H6.41666ZM8.25 12.8333H17.4167C17.4167 12.3292 17.5963 11.8977 17.9557 11.539C18.315 11.1803 18.7464 11.0006 19.25 11V7.33332C18.7458 7.33332 18.3144 7.15396 17.9557 6.79524C17.5969 6.43652 17.4173 6.00477 17.4167 5.49999H8.25C8.25 6.00416 8.07064 6.43591 7.71191 6.79524C7.35319 7.15457 6.92144 7.33393 6.41666 7.33332V11C6.92083 11 7.35258 11.1797 7.71191 11.539C8.07125 11.8983 8.25061 12.3298 8.25 12.8333ZM17.4167 18.3333H2.75C2.24583 18.3333 1.81439 18.154 1.45566 17.7952C1.09694 17.4365 0.917275 17.0048 0.916664 16.5V7.33332C0.916664 7.0736 1.00466 6.85605 1.18066 6.68066C1.35666 6.50527 1.57422 6.41727 1.83333 6.41666C2.09244 6.41605 2.3103 6.50405 2.48691 6.68066C2.66353 6.85727 2.75122 7.07482 2.75 7.33332V16.5H17.4167C17.6764 16.5 17.8942 16.588 18.0702 16.764C18.2462 16.94 18.3339 17.1575 18.3333 17.4167C18.3327 17.6758 18.2447 17.8936 18.0693 18.0702C17.8939 18.2469 17.6764 18.3345 17.4167 18.3333Z" fill="#5E1C3D"/>
</svg>
