<svg width="46" height="46" viewBox="0 0 46 46" fill="none" xmlns="http://www.w3.org/2000/svg">
<path d="M18.7357 23C17.5857 23 16.6274 22.5687 15.8607 21.7062C15.0941 20.8437 14.7906 19.8375 14.9503 18.6875L15.5732 13.9917C15.8288 12.1708 16.6594 10.6611 18.0649 9.46257C19.4705 8.26402 21.1156 7.66538 23.0003 7.66666C24.885 7.66794 26.5302 8.26721 27.9357 9.46449C29.3413 10.6618 30.1719 12.1708 30.4274 13.9917L31.0503 18.6875C31.21 19.8375 30.9066 20.8437 30.1399 21.7062C29.3732 22.5687 28.4149 23 27.2649 23H18.7357ZM7.66699 34.5V32.9667C7.66699 31.8805 7.94683 30.8826 8.50649 29.9728C9.06616 29.063 9.80855 28.3679 10.7337 27.8875C12.7142 26.8972 14.7267 26.1548 16.7712 25.6603C18.8156 25.1658 20.892 24.9179 23.0003 24.9167C25.1087 24.9154 27.185 25.1633 29.2295 25.6603C31.2739 26.1574 33.2864 26.8998 35.267 27.8875C36.1934 28.3667 36.9364 29.0618 37.4961 29.9728C38.0557 30.8839 38.3349 31.8818 38.3337 32.9667V34.5C38.3337 35.5542 37.9586 36.4569 37.2086 37.2082C36.4585 37.9596 35.5558 38.3346 34.5003 38.3333H11.5003C10.4462 38.3333 9.54405 37.9583 8.79399 37.2082C8.04394 36.4582 7.66827 35.5554 7.66699 34.5Z" fill="#5E1C3D"/>
</svg>
