<svg width="16" height="16" viewBox="0 0 16 16" fill="none" xmlns="http://www.w3.org/2000/svg">
<path d="M7.99999 7.99999C7.26666 7.99999 6.63888 7.73888 6.11666 7.21666C5.59443 6.69443 5.33332 6.06666 5.33332 5.33332C5.33332 4.59999 5.59443 3.97221 6.11666 3.44999C6.63888 2.92777 7.26666 2.66666 7.99999 2.66666C8.73332 2.66666 9.3611 2.92777 9.88332 3.44999C10.4055 3.97221 10.6667 4.59999 10.6667 5.33332C10.6667 6.06666 10.4055 6.69443 9.88332 7.21666C9.3611 7.73888 8.73332 7.99999 7.99999 7.99999ZM2.66666 13.3333V11.4667C2.66666 11.0889 2.76399 10.7418 2.95866 10.4253C3.15332 10.1089 3.41155 9.8671 3.73332 9.69999C4.42221 9.35555 5.12221 9.09732 5.83332 8.92532C6.54443 8.75332 7.26666 8.6671 7.99999 8.66666C8.73332 8.66621 9.45554 8.75243 10.1667 8.92532C10.8778 9.09821 11.5778 9.35643 12.2667 9.69999C12.5889 9.86666 12.8473 10.1084 13.042 10.4253C13.2367 10.7422 13.3338 11.0893 13.3333 11.4667V13.3333H2.66666Z" fill="#5E1C3D"/>
</svg>
